<?xml version="1.0" encoding="utf-8"?>
<!-- Generator: Adobe Illustrator 23.0.1, SVG Export Plug-In . SVG Version: 6.00 Build 0)  -->
<svg version="1.1" id="Layer_1" xmlns="http://www.w3.org/2000/svg" xmlns:xlink="http://www.w3.org/1999/xlink" x="0px" y="0px"
	 viewBox="0 0 24 24" style="enable-background:new 0 0 24 24;" xml:space="preserve">
<style type="text/css">
	.st0{opacity:0.25;fill:#17B200;}
	.st1{opacity:0.1;fill:#FFFFFF;stroke:#FFFFFF;stroke-width:0.25;stroke-miterlimit:10;}
	.st2{opacity:0.1;fill:#FFFFFF;}
</style>
<path class="st0" d="M56.09-15c-5.52,0-10,4.48-10,10s4.48,10,10,10s10-4.48,10-10S61.61-15,56.09-15z M56.09-12c1.66,0,3,1.34,3,3
	s-1.34,3-3,3s-3-1.34-3-3S54.43-12,56.09-12z M56.09,2.2c-2.5,0-4.71-1.28-6-3.22c0.03-1.99,4-3.08,6-3.08c1.99,0,5.97,1.09,6,3.08
	C60.8,0.92,58.59,2.2,56.09,2.2z"/>
<path class="st1" d="M1.85,0.36c0.25,0.07,0.41,0.21,0.47,0.48c0.16,0,0.31,0,0.47,0c0.27,0,0.55,0,0.82,0
	c0.1,0,0.14,0.04,0.14,0.14c0,0.31,0,0.62,0,0.93c0.02-0.01,0.04-0.02,0.05-0.03c0.07-0.04,0.14-0.01,0.15,0.07
	c0,0.03,0,0.06,0,0.09c0,0.97,0,1.94,0,2.92c0,0.03,0,0.05,0,0.08c-1,0-1.99,0-2.99,0c0-1.05,0-2.09,0-3.14
	c0.11-0.11,0.17,0,0.25,0.08c0-0.35,0-0.69,0-1.02c0-0.04,0-0.09,0.01-0.13c0.05-0.26,0.22-0.39,0.47-0.45
	C1.74,0.36,1.79,0.36,1.85,0.36z M1.14,4.9c0.88,0,1.74,0,2.61,0c0-0.9,0-1.79,0-2.7c-0.1,0.12-0.18,0.22-0.27,0.32
	c-0.08,0.09-0.12,0.09-0.21,0C3.16,2.37,3.04,2.23,2.92,2.08c-0.13,0.15-0.25,0.3-0.37,0.44c-0.07,0.08-0.12,0.08-0.19,0
	C2.23,2.38,2.11,2.24,1.98,2.08C1.86,2.23,1.74,2.38,1.62,2.52c-0.08,0.1-0.13,0.1-0.21,0c-0.08-0.1-0.17-0.2-0.26-0.31
	C1.14,3.12,1.14,4.01,1.14,4.9z M2.13,0.95c-0.1,0.11-0.18,0.2-0.26,0.28C1.82,1.27,1.78,1.35,1.71,1.29
	C1.64,1.22,1.73,1.17,1.77,1.13c0.09-0.09,0.17-0.19,0.27-0.27C2.12,0.79,2.1,0.74,2.05,0.68c-0.1-0.12-0.26-0.17-0.4-0.12
	C1.49,0.61,1.39,0.74,1.39,0.91c0,0.39,0.01,0.79,0,1.18c0,0.12,0.06,0.19,0.13,0.26c0.01-0.01,0.02-0.01,0.02-0.02
	c0.11-0.13,0.22-0.27,0.33-0.4C1.96,1.82,2,1.82,2.09,1.93C2.1,1.94,2.1,1.96,2.11,1.97c0.01-0.01,0.01-0.01,0.02-0.02
	c0-0.16,0-0.32,0-0.5c-0.1,0.11-0.19,0.2-0.29,0.29c-0.03,0.03-0.1,0.05-0.13,0.04C1.66,1.73,1.71,1.69,1.74,1.65
	c0.08-0.08,0.14-0.16,0.23-0.23c0.14-0.11,0.19-0.24,0.16-0.41C2.13,1,2.13,0.99,2.13,0.95z M3.38,2.36
	c0.07-0.11,0.2-0.17,0.16-0.33c-0.06-0.29-0.32-0.5-0.62-0.51c-0.28,0-0.54,0.21-0.6,0.49c-0.03,0.14,0,0.25,0.13,0.33
	C2.58,2.2,2.7,2.06,2.82,1.92c0.08-0.09,0.12-0.09,0.2,0C3.14,2.06,3.26,2.21,3.38,2.36z M2.32,1.62c0.34-0.33,0.83-0.38,1.22-0.01
	c0-0.2,0-0.39,0-0.58c-0.41,0-0.81,0-1.22,0C2.32,1.22,2.32,1.41,2.32,1.62z"/>
<path class="st2" d="M6.91,4.17c-0.23,0-0.42,0.19-0.42,0.43c0,0.23,0.19,0.43,0.42,0.43c0.23,0,0.43-0.19,0.43-0.43
	C7.34,4.36,7.15,4.17,6.91,4.17z M9.04,4.17c-0.23,0-0.42,0.19-0.42,0.43c0,0.23,0.19,0.43,0.42,0.43s0.43-0.19,0.43-0.43
	C9.47,4.36,9.28,4.17,9.04,4.17z M6.95,3.47l0.01-0.03L7.15,3.1h1.59c0.16,0,0.3-0.09,0.37-0.22l0.82-1.49l-0.37-0.2h0L9.32,1.61
	L8.74,2.67h-1.5L7.21,2.62L6.73,1.61l-0.2-0.43l-0.2-0.43h-0.7v0.43h0.43L6.83,2.8L6.54,3.32c-0.03,0.06-0.05,0.13-0.05,0.2
	c0,0.23,0.19,0.43,0.43,0.43h2.56V3.53H7C6.98,3.53,6.95,3.5,6.95,3.47z"/>
<path class="st2" d="M11.54,1.87c0-0.06,0-0.12,0-0.18c0.07-0.24,0.14-0.48,0.21-0.72c0.05-0.17,0.1-0.21,0.28-0.21
	c1.15,0,2.29,0,3.44,0c0.18,0,0.23,0.04,0.28,0.21c0.07,0.24,0.14,0.48,0.21,0.72c0,0.06,0,0.12,0,0.18
	c-0.05,0.13-0.1,0.26-0.14,0.39c-0.02,0.06-0.05,0.12-0.05,0.18c0,0.8,0,1.6,0,2.41c0,0.2-0.07,0.27-0.27,0.27c-1.17,0-2.33,0-3.5,0
	c-0.2,0-0.27-0.07-0.27-0.27c0-0.81,0-1.61,0-2.42c0-0.04,0-0.07-0.01-0.11C11.66,2.17,11.6,2.02,11.54,1.87z M13.86,4.68
	c0-0.04,0-0.08,0-0.11c0-0.32,0-0.64,0-0.95c0-0.16,0.07-0.23,0.23-0.23c0.22,0,0.45,0,0.67,0c0.19,0,0.25,0.06,0.25,0.25
	c0,0.31,0,0.63,0,0.94c0,0.03,0,0.07,0,0.1c0.11,0,0.21,0,0.31,0c0-0.67,0-1.33,0-2c-0.35,0.11-0.67,0.07-0.97-0.14
	c-0.41,0.27-0.81,0.27-1.22,0c-0.37,0.22-0.49,0.24-0.97,0.14c0,0.66,0,1.33,0,1.99C12.73,4.68,13.29,4.68,13.86,4.68z M14.57,1.19
	c0,0.05,0,0.08,0,0.11c0,0.27,0,0.54,0,0.81c0,0.03,0.03,0.06,0.06,0.08c0.24,0.19,0.62,0.14,0.79-0.12
	c0.06-0.09,0.11-0.21,0.09-0.31c-0.02-0.18-0.09-0.35-0.14-0.52c-0.01-0.02-0.04-0.05-0.06-0.05C15.07,1.19,14.83,1.19,14.57,1.19z
	 M12.92,1.19c-0.25,0-0.49,0-0.72,0c-0.03,0-0.07,0.03-0.08,0.06c-0.05,0.16-0.09,0.33-0.14,0.49c-0.01,0.02-0.01,0.05-0.01,0.08
	c0.05,0.35,0.41,0.57,0.74,0.45c0.17-0.06,0.21-0.11,0.21-0.29C12.92,1.72,12.92,1.46,12.92,1.19z M13.37,1.2
	c0,0.01-0.01,0.02-0.01,0.03c0,0.29,0,0.58,0,0.87c0,0.03,0.03,0.08,0.06,0.1c0.18,0.14,0.44,0.14,0.63,0.01
	c0.05-0.04,0.08-0.08,0.08-0.14c0-0.21,0-0.42,0-0.63c0-0.08,0-0.16,0-0.24C13.87,1.2,13.62,1.2,13.37,1.2z"/>
<path class="st2" d="M17.52,2.53c0-0.03,0-0.07,0-0.1c0.06-0.11,0.15-0.16,0.28-0.15c0.13,0.01,0.27,0,0.4,0
	c0.08,0,0.12-0.02,0.16-0.1c0.18-0.41,0.38-0.81,0.56-1.21c0.05-0.1,0.11-0.15,0.22-0.15c0.14,0,0.28,0,0.44,0
	c-0.02-0.15,0.08-0.15,0.18-0.15c0.4,0,0.8,0,1.2,0c0.11,0,0.19,0.01,0.2,0.15c0.14,0,0.28,0,0.41,0c0.11,0,0.18,0.04,0.22,0.15
	c0.15,0.33,0.32,0.65,0.45,0.98c0.1,0.25,0.23,0.39,0.51,0.33c0.05-0.01,0.11,0,0.16,0c0.13-0.01,0.22,0.04,0.28,0.15
	c0,0.03,0,0.07,0,0.1c-0.01,0.03-0.03,0.06-0.04,0.09c-0.29,0.72-0.58,1.43-0.86,2.15c-0.05,0.14-0.14,0.2-0.28,0.19
	c-0.4-0.01-0.81,0-1.21,0c-0.7,0-1.4,0-2.1,0c-0.18,0-0.21-0.03-0.28-0.19c-0.03-0.08-0.07-0.16-0.1-0.25
	C18.06,3.86,17.79,3.19,17.52,2.53z M22.03,2.27c-0.02-0.05-0.03-0.08-0.05-0.12c-0.11-0.24-0.22-0.47-0.32-0.71
	c-0.13-0.29-0.13-0.29-0.45-0.28c-0.01,0-0.02,0-0.04,0.01c0,0.12-0.07,0.15-0.18,0.15c-0.4,0-0.81,0-1.21,0
	c-0.11,0-0.2-0.01-0.18-0.16c-0.1,0-0.18,0.01-0.27,0c-0.09-0.01-0.13,0.03-0.17,0.11c-0.1,0.23-0.21,0.46-0.31,0.69
	c-0.05,0.1-0.09,0.2-0.14,0.32C19.82,2.27,20.91,2.27,22.03,2.27z M20.25,4.09c-0.28,0-0.54,0-0.8,0c0,0.16,0,0.32,0,0.47
	c0.27,0,0.53,0,0.8,0C20.25,4.4,20.25,4.25,20.25,4.09z M20.24,3.16c0-0.17,0-0.32,0-0.47c-0.27,0-0.53,0-0.79,0
	c0,0.16,0,0.31,0,0.47C19.72,3.16,19.98,3.16,20.24,3.16z M20.24,3.85c0-0.15,0-0.3,0-0.45c-0.27,0-0.53,0-0.79,0
	c0,0.15,0,0.3,0,0.45C19.72,3.85,19.98,3.85,20.24,3.85z M20.49,4.08c0,0.17,0,0.32,0,0.49c0.21,0,0.41,0,0.62,0
	c0.02,0,0.06-0.03,0.06-0.05c0.01-0.14,0-0.28,0-0.43C20.94,4.08,20.72,4.08,20.49,4.08z M22.08,3.16c0-0.17,0-0.32,0-0.47
	c-0.23,0-0.45,0-0.67,0c0,0.16,0,0.31,0,0.47C21.63,3.16,21.85,3.16,22.08,3.16z M22.08,4.08c-0.23,0-0.45,0-0.67,0
	c0,0.17,0,0.32,0,0.49c0.17,0,0.32,0,0.48,0c0.03,0,0.07-0.01,0.07-0.03C22.01,4.39,22.12,4.26,22.08,4.08z M20.48,3.16
	c0.24,0,0.46,0,0.68,0c0-0.16,0-0.31,0-0.46c-0.23,0-0.45,0-0.68,0C20.48,2.85,20.48,3,20.48,3.16z M21.41,3.4c0,0.15,0,0.3,0,0.44
	c0.23,0,0.45,0,0.67,0c0-0.16,0-0.3,0-0.44C21.85,3.4,21.63,3.4,21.41,3.4z M20.48,3.84c0.24,0,0.46,0,0.68,0c0-0.16,0-0.3,0-0.44
	c-0.23,0-0.45,0-0.68,0C20.48,3.55,20.48,3.69,20.48,3.84z M19.21,3.16c0-0.16,0-0.32,0-0.47c-0.19,0-0.38,0-0.57,0
	c0,0.16,0,0.31,0,0.47C18.83,3.16,19.01,3.16,19.21,3.16z M18.58,4.08c0.06,0.16,0.12,0.3,0.18,0.44c0.01,0.02,0.05,0.05,0.07,0.05
	c0.12,0.01,0.25,0,0.37,0c0-0.17,0-0.33,0-0.49C19,4.08,18.8,4.08,18.58,4.08z M18.64,3.84c0.2,0,0.39,0,0.57,0c0-0.15,0-0.3,0-0.44
	c-0.2,0-0.38,0-0.57,0C18.64,3.55,18.64,3.69,18.64,3.84z M18.4,2.69c-0.13,0-0.24,0-0.38,0c0.05,0.12,0.1,0.22,0.13,0.33
	c0.04,0.13,0.11,0.18,0.25,0.13C18.4,3,18.4,2.85,18.4,2.69z M22.32,2.69c0,0.16,0,0.31,0,0.5c0.08-0.02,0.18-0.02,0.21-0.07
	c0.08-0.13,0.12-0.28,0.18-0.43C22.57,2.69,22.45,2.69,22.32,2.69z"/>
<path class="st1" d="M22.33,6.69c0.24,0.06,0.41,0.2,0.47,0.45c0.01,0.04,0.01,0.09,0.01,0.13c0,0.34,0,0.67,0,1.02
	c0.08-0.08,0.14-0.18,0.25-0.08c0,1.05,0,2.09,0,3.14c-1,0-2,0-2.99,0c0-0.03,0-0.05,0-0.08c0-0.97,0-1.94,0-2.92
	c0-0.03,0-0.06,0-0.09c0.01-0.09,0.08-0.11,0.15-0.07c0.01,0.01,0.03,0.02,0.05,0.03c0-0.32,0-0.63,0-0.93
	c0-0.1,0.04-0.14,0.14-0.14c0.27,0,0.55,0,0.82,0c0.16,0,0.31,0,0.47,0c0.06-0.26,0.22-0.41,0.47-0.48
	C22.22,6.69,22.27,6.69,22.33,6.69z M22.86,8.53c-0.1,0.11-0.18,0.21-0.26,0.31c-0.09,0.1-0.13,0.1-0.21,0
	c-0.12-0.14-0.24-0.29-0.36-0.43c-0.13,0.15-0.25,0.3-0.37,0.44c-0.07,0.08-0.12,0.08-0.19,0c-0.12-0.15-0.24-0.29-0.37-0.44
	c-0.12,0.15-0.24,0.29-0.36,0.43c-0.08,0.1-0.13,0.1-0.21,0c-0.09-0.1-0.17-0.2-0.27-0.32c0,0.91,0,1.8,0,2.7c0.86,0,1.73,0,2.61,0
	C22.86,10.34,22.86,9.45,22.86,8.53z M21.87,7.34c-0.03,0.17,0.02,0.31,0.16,0.41c0.08,0.06,0.15,0.15,0.23,0.23
	c0.04,0.04,0.09,0.08,0.03,0.13c-0.02,0.02-0.1-0.01-0.13-0.04c-0.1-0.08-0.18-0.18-0.29-0.29c0,0.18,0,0.34,0,0.5
	c0.01,0.01,0.01,0.01,0.02,0.02c0.01-0.02,0.01-0.03,0.02-0.05c0.09-0.1,0.13-0.1,0.22,0.01c0.11,0.13,0.22,0.27,0.33,0.4
	c0,0.01,0.01,0.01,0.02,0.02c0.08-0.07,0.13-0.14,0.13-0.26c-0.01-0.39,0-0.79,0-1.18c0-0.17-0.11-0.3-0.26-0.35
	c-0.14-0.05-0.3,0-0.4,0.12c-0.05,0.06-0.07,0.11,0.01,0.18c0.1,0.08,0.18,0.18,0.27,0.27c0.04,0.04,0.13,0.09,0.06,0.16
	c-0.07,0.07-0.11-0.02-0.15-0.06c-0.08-0.08-0.16-0.17-0.26-0.28C21.87,7.32,21.87,7.33,21.87,7.34z M20.99,8.25
	c0.08-0.09,0.12-0.09,0.2,0c0.12,0.14,0.24,0.29,0.36,0.43c0.13-0.08,0.16-0.19,0.13-0.33c-0.06-0.28-0.32-0.5-0.6-0.49
	c-0.3,0-0.55,0.22-0.62,0.51c-0.03,0.15,0.09,0.22,0.16,0.33C20.75,8.53,20.87,8.39,20.99,8.25z M21.68,7.36c-0.41,0-0.81,0-1.22,0
	c0,0.19,0,0.38,0,0.58c0.39-0.38,0.89-0.32,1.22,0.01C21.68,7.74,21.68,7.55,21.68,7.36z"/>
<path class="st2" d="M16.67,10.92c0,0.23,0.19,0.43,0.43,0.43s0.42-0.19,0.42-0.43c0-0.23-0.19-0.43-0.42-0.43
	S16.67,10.69,16.67,10.92z M14.54,10.92c0,0.23,0.19,0.43,0.43,0.43s0.42-0.19,0.42-0.43c0-0.23-0.19-0.43-0.42-0.43
	S14.54,10.69,14.54,10.92z M17,9.86h-2.47v0.43h2.56c0.23,0,0.43-0.19,0.43-0.43c0-0.07-0.02-0.14-0.05-0.2l-0.29-0.52l0.77-1.62
	h0.43V7.09h-0.7l-0.2,0.43l-0.2,0.43l-0.48,1.01L16.77,9h-1.5l-0.59-1.07l-0.23-0.43h0l-0.37,0.2l0.82,1.49
	c0.07,0.13,0.21,0.22,0.37,0.22h1.59l0.19,0.35l0.01,0.03C17.06,9.83,17.03,9.86,17,9.86z"/>
<path class="st2" d="M12.29,8.65c-0.01,0.03-0.01,0.07-0.01,0.11c0,0.81,0,1.61,0,2.42c0,0.2-0.07,0.27-0.27,0.27
	c-1.17,0-2.33,0-3.5,0c-0.2,0-0.27-0.07-0.27-0.27c0-0.8,0-1.6,0-2.41c0-0.06-0.03-0.12-0.05-0.18C8.14,8.46,8.1,8.33,8.05,8.19
	c0-0.06,0-0.12,0-0.18C8.12,7.78,8.19,7.54,8.26,7.3c0.05-0.17,0.1-0.21,0.28-0.21c1.15,0,2.29,0,3.44,0c0.18,0,0.23,0.04,0.28,0.21
	c0.07,0.24,0.14,0.48,0.21,0.72c0,0.06,0,0.12,0,0.18C12.41,8.35,12.35,8.5,12.29,8.65z M11.84,11.01c0-0.67,0-1.33,0-1.99
	c-0.48,0.09-0.6,0.07-0.97-0.14c-0.41,0.27-0.81,0.27-1.22,0C9.35,9.08,9.03,9.12,8.68,9.01c0,0.67,0,1.33,0,2c0.1,0,0.2,0,0.31,0
	c0-0.03,0-0.07,0-0.1c0-0.31,0-0.63,0-0.94c0-0.19,0.06-0.25,0.25-0.25c0.22,0,0.45,0,0.67,0c0.16,0,0.23,0.07,0.23,0.23
	c0,0.32,0,0.64,0,0.95c0,0.04,0,0.07,0,0.11C10.72,11.01,11.28,11.01,11.84,11.01z M8.7,7.52c-0.02,0-0.05,0.03-0.06,0.05
	C8.59,7.74,8.52,7.91,8.5,8.09C8.49,8.19,8.54,8.31,8.59,8.4c0.17,0.26,0.55,0.32,0.79,0.12C9.4,8.5,9.43,8.47,9.43,8.44
	c0-0.27,0-0.54,0-0.81c0-0.03,0-0.06,0-0.11C9.18,7.52,8.94,7.52,8.7,7.52z M11.08,8.31c0,0.18,0.03,0.23,0.21,0.29
	c0.33,0.12,0.69-0.1,0.74-0.45c0-0.02,0-0.05-0.01-0.08c-0.04-0.16-0.09-0.33-0.14-0.49c-0.01-0.03-0.05-0.06-0.08-0.06
	c-0.24,0-0.47,0-0.72,0C11.08,7.79,11.08,8.05,11.08,8.31z M9.87,7.52c0,0.08,0,0.16,0,0.24c0,0.21,0,0.42,0,0.63
	c0,0.07,0.02,0.11,0.08,0.14c0.19,0.13,0.45,0.12,0.63-0.01c0.03-0.02,0.06-0.07,0.06-0.1c0-0.29,0-0.58,0-0.87
	c0-0.01-0.01-0.02-0.01-0.03C10.39,7.52,10.14,7.52,9.87,7.52z"/>
<path class="st2" d="M5.68,10.85c-0.03,0.08-0.07,0.16-0.1,0.25c-0.07,0.17-0.1,0.19-0.28,0.19c-0.7,0-1.4,0-2.1,0
	c-0.4,0-0.81,0-1.21,0c-0.15,0-0.23-0.06-0.28-0.19c-0.28-0.72-0.57-1.43-0.86-2.15C0.83,8.92,0.81,8.89,0.8,8.86
	c0-0.03,0-0.07,0-0.1C0.86,8.64,0.95,8.6,1.08,8.61c0.05,0,0.11-0.01,0.16,0c0.28,0.06,0.41-0.08,0.51-0.33
	C1.88,7.95,2.05,7.63,2.2,7.3c0.05-0.1,0.11-0.15,0.22-0.15c0.13,0,0.27,0,0.41,0C2.84,7.01,2.93,7,3.04,7c0.4,0,0.8,0,1.2,0
	c0.1,0,0.2,0,0.18,0.15c0.16,0,0.3,0,0.44,0c0.11,0,0.18,0.04,0.22,0.15C5.27,7.7,5.46,8.1,5.64,8.51c0.04,0.08,0.08,0.11,0.16,0.1
	c0.13-0.01,0.27,0,0.4,0C6.33,8.6,6.43,8.65,6.48,8.76c0,0.03,0,0.07,0,0.1C6.21,9.52,5.95,10.19,5.68,10.85z M5.31,8.6
	C5.26,8.49,5.21,8.39,5.16,8.29C5.06,8.06,4.95,7.83,4.85,7.6C4.82,7.52,4.77,7.48,4.68,7.49c-0.08,0.01-0.17,0-0.27,0
	c0.01,0.14-0.07,0.16-0.18,0.16c-0.4,0-0.81,0-1.21,0c-0.11,0-0.18-0.02-0.18-0.15c-0.02,0-0.03-0.01-0.04-0.01
	C2.48,7.49,2.48,7.49,2.35,7.77C2.25,8.01,2.14,8.25,2.03,8.48C2.01,8.52,2,8.56,1.98,8.6C3.09,8.6,4.19,8.6,5.31,8.6z M3.76,10.89
	c0.26,0,0.53,0,0.8,0c0-0.15,0-0.31,0-0.47c-0.26,0-0.52,0-0.8,0C3.76,10.58,3.76,10.73,3.76,10.89z M4.55,9.49
	c0-0.16,0-0.31,0-0.47c-0.26,0-0.52,0-0.79,0c0,0.15,0,0.3,0,0.47C4.03,9.49,4.29,9.49,4.55,9.49z M4.55,10.18c0-0.15,0-0.29,0-0.45
	c-0.26,0-0.52,0-0.79,0c0,0.14,0,0.29,0,0.45C4.03,10.18,4.29,10.18,4.55,10.18z M2.84,10.41c0,0.15,0,0.29,0,0.43
	c0,0.02,0.04,0.05,0.06,0.05c0.2,0,0.41,0,0.62,0c0-0.17,0-0.32,0-0.49C3.29,10.41,3.07,10.41,2.84,10.41z M2.6,9.49
	c0-0.16,0-0.31,0-0.47c-0.23,0-0.44,0-0.67,0c0,0.15,0,0.31,0,0.47C2.15,9.49,2.37,9.49,2.6,9.49z M2.05,10.87
	c0.01,0.02,0.05,0.03,0.07,0.03c0.16,0,0.31,0,0.48,0c0-0.16,0-0.32,0-0.49c-0.22,0-0.44,0-0.67,0C1.89,10.59,2,10.72,2.05,10.87z
	 M3.52,9.02c-0.23,0-0.45,0-0.68,0c0,0.15,0,0.3,0,0.46c0.22,0,0.45,0,0.68,0C3.52,9.33,3.52,9.18,3.52,9.02z M1.93,9.73
	c0,0.14,0,0.29,0,0.44c0.22,0,0.44,0,0.67,0c0-0.15,0-0.29,0-0.44C2.37,9.73,2.16,9.73,1.93,9.73z M3.52,9.73c-0.22,0-0.44,0-0.68,0
	c0,0.14,0,0.29,0,0.44c0.22,0,0.44,0,0.68,0C3.52,10.02,3.52,9.88,3.52,9.73z M5.37,9.49c0-0.16,0-0.31,0-0.47
	c-0.19,0-0.38,0-0.57,0c0,0.16,0,0.31,0,0.47C4.99,9.49,5.18,9.49,5.37,9.49z M4.8,10.41c0,0.16,0,0.32,0,0.49c0.12,0,0.25,0,0.37,0
	c0.03,0,0.06-0.03,0.07-0.05c0.06-0.14,0.11-0.28,0.18-0.44C5.21,10.41,5.01,10.41,4.8,10.41z M5.37,9.73c-0.19,0-0.38,0-0.57,0
	c0,0.14,0,0.29,0,0.44c0.19,0,0.37,0,0.57,0C5.37,10.02,5.37,9.88,5.37,9.73z M5.61,9.48c0.13,0.05,0.21,0,0.25-0.13
	c0.03-0.11,0.08-0.22,0.13-0.33c-0.13,0-0.25,0-0.38,0C5.61,9.18,5.61,9.33,5.61,9.48z M1.3,9.02c0.06,0.15,0.11,0.3,0.18,0.43
	C1.5,9.49,1.6,9.49,1.69,9.52c0-0.18,0-0.34,0-0.5C1.55,9.02,1.43,9.02,1.3,9.02z"/>
<path class="st1" d="M1.7,12.86c0.25,0.07,0.41,0.21,0.47,0.48c0.16,0,0.31,0,0.47,0c0.27,0,0.55,0,0.82,0
	c0.1,0,0.14,0.04,0.14,0.14c0,0.31,0,0.62,0,0.93c0.02-0.01,0.04-0.02,0.05-0.03c0.07-0.04,0.14-0.01,0.15,0.07
	c0,0.03,0,0.06,0,0.09c0,0.97,0,1.94,0,2.92c0,0.03,0,0.05,0,0.08c-1,0-1.99,0-2.99,0c0-1.05,0-2.09,0-3.14
	c0.11-0.11,0.17,0,0.25,0.08c0-0.35,0-0.69,0-1.02c0-0.04,0-0.09,0.01-0.13c0.05-0.26,0.22-0.39,0.47-0.45
	C1.59,12.86,1.64,12.86,1.7,12.86z M0.99,17.4c0.88,0,1.74,0,2.61,0c0-0.9,0-1.79,0-2.7c-0.1,0.12-0.18,0.22-0.27,0.32
	c-0.08,0.09-0.12,0.09-0.21,0c-0.12-0.14-0.24-0.28-0.36-0.43c-0.13,0.15-0.25,0.3-0.37,0.44c-0.07,0.08-0.12,0.08-0.19,0
	c-0.12-0.15-0.24-0.29-0.37-0.44c-0.12,0.15-0.24,0.29-0.36,0.43c-0.08,0.1-0.13,0.1-0.21,0c-0.08-0.1-0.17-0.2-0.26-0.31
	C0.99,15.62,0.99,16.51,0.99,17.4z M1.98,13.45c-0.1,0.11-0.18,0.2-0.26,0.28c-0.04,0.04-0.08,0.12-0.15,0.06
	c-0.07-0.07,0.02-0.11,0.06-0.16c0.09-0.09,0.17-0.19,0.27-0.27c0.08-0.07,0.06-0.12,0.01-0.18c-0.1-0.12-0.26-0.17-0.4-0.12
	c-0.16,0.05-0.26,0.18-0.26,0.35c0,0.39,0,0.79,0,1.18c0,0.12,0.06,0.19,0.13,0.26c0.01-0.01,0.02-0.01,0.02-0.02
	c0.11-0.13,0.22-0.27,0.33-0.4c0.09-0.11,0.13-0.11,0.22-0.01c0.01,0.01,0.01,0.03,0.02,0.05c0.01-0.01,0.01-0.01,0.02-0.02
	c0-0.16,0-0.32,0-0.5c-0.1,0.11-0.19,0.2-0.29,0.29c-0.03,0.03-0.1,0.05-0.13,0.04c-0.06-0.04-0.01-0.09,0.03-0.13
	c0.08-0.08,0.14-0.16,0.23-0.23c0.14-0.11,0.19-0.24,0.16-0.41C1.98,13.5,1.98,13.5,1.98,13.45z M3.23,14.86
	c0.07-0.11,0.2-0.17,0.16-0.33c-0.06-0.29-0.32-0.5-0.62-0.51c-0.28,0-0.54,0.21-0.6,0.49c-0.03,0.14,0,0.25,0.13,0.33
	c0.12-0.15,0.24-0.29,0.36-0.43c0.08-0.09,0.12-0.09,0.2,0C2.99,14.56,3.1,14.71,3.23,14.86z M2.17,14.12
	c0.34-0.33,0.83-0.38,1.22-0.01c0-0.2,0-0.39,0-0.58c-0.41,0-0.81,0-1.22,0C2.17,13.73,2.17,13.92,2.17,14.12z"/>
<path class="st2" d="M6.76,16.67c-0.23,0-0.42,0.19-0.42,0.43s0.19,0.43,0.42,0.43c0.23,0,0.43-0.19,0.43-0.43S7,16.67,6.76,16.67z
	 M8.89,16.67c-0.23,0-0.42,0.19-0.42,0.43s0.19,0.43,0.42,0.43s0.43-0.19,0.43-0.43S9.13,16.67,8.89,16.67z M6.8,15.98l0.01-0.03
	L7,15.6l1.59,0c0.16,0,0.3-0.09,0.37-0.22l0.82-1.49l-0.37-0.2h0l-0.23,0.43l-0.59,1.07l-1.5,0l-0.03-0.06l-0.48-1.01l-0.2-0.43
	l-0.2-0.43l-0.7,0l0,0.43l0.43,0l0.77,1.62l-0.29,0.52c-0.03,0.06-0.05,0.13-0.05,0.2c0,0.23,0.19,0.43,0.43,0.43l2.56,0l0-0.43
	l-2.47,0C6.83,16.03,6.8,16.01,6.8,15.98z"/>
<path class="st2" d="M11.39,14.37c0-0.06,0-0.12,0-0.18c0.07-0.24,0.14-0.48,0.21-0.72c0.05-0.17,0.1-0.21,0.28-0.21
	c1.15,0,2.29,0,3.44,0c0.18,0,0.23,0.04,0.28,0.21c0.07,0.24,0.14,0.48,0.21,0.72c0,0.06,0,0.12,0,0.18
	c-0.05,0.13-0.1,0.26-0.14,0.39c-0.02,0.06-0.05,0.12-0.05,0.18c0,0.8,0,1.6,0,2.41c0,0.2-0.07,0.27-0.27,0.27c-1.17,0-2.33,0-3.5,0
	c-0.2,0-0.27-0.07-0.27-0.27c0-0.81,0-1.61,0-2.42c0-0.04,0-0.07-0.01-0.11C11.51,14.67,11.45,14.52,11.39,14.37z M13.71,17.18
	c0-0.04,0-0.08,0-0.11c0-0.32,0-0.64,0-0.95c0-0.16,0.07-0.23,0.23-0.23c0.22,0,0.45,0,0.67,0c0.19,0,0.25,0.06,0.25,0.25
	c0,0.31,0,0.63,0,0.94c0,0.03,0,0.07,0,0.1c0.11,0,0.21,0,0.31,0c0-0.67,0-1.33,0-2c-0.35,0.11-0.67,0.07-0.97-0.14
	c-0.41,0.27-0.81,0.27-1.22,0c-0.37,0.22-0.49,0.24-0.97,0.14c0,0.66,0,1.33,0,1.99C12.58,17.18,13.14,17.18,13.71,17.18z
	 M14.42,13.7c0,0.05,0,0.08,0,0.11c0,0.27,0,0.54,0,0.81c0,0.03,0.03,0.06,0.06,0.08c0.24,0.19,0.62,0.14,0.79-0.12
	c0.06-0.09,0.11-0.21,0.09-0.31c-0.02-0.18-0.09-0.35-0.14-0.52c-0.01-0.02-0.04-0.05-0.06-0.05C14.92,13.69,14.68,13.7,14.42,13.7z
	 M12.77,13.69c-0.25,0-0.49,0-0.72,0c-0.03,0-0.07,0.03-0.08,0.06c-0.05,0.16-0.09,0.33-0.14,0.49c-0.01,0.02-0.01,0.05-0.01,0.08
	c0.05,0.35,0.41,0.57,0.74,0.45c0.17-0.06,0.21-0.11,0.21-0.29C12.77,14.23,12.77,13.97,12.77,13.69z M13.22,13.7
	c0,0.01-0.01,0.02-0.01,0.03c0,0.29,0,0.58,0,0.87c0,0.03,0.03,0.08,0.06,0.1c0.18,0.14,0.44,0.14,0.63,0.01
	c0.05-0.04,0.08-0.08,0.08-0.14c0-0.21,0-0.42,0-0.63c0-0.08,0-0.16,0-0.24C13.72,13.7,13.47,13.7,13.22,13.7z"/>
<path class="st2" d="M17.37,15.04c0-0.03,0-0.07,0-0.1c0.06-0.11,0.15-0.16,0.28-0.15c0.13,0.01,0.27,0,0.4,0
	c0.08,0,0.12-0.02,0.16-0.1c0.18-0.41,0.38-0.81,0.56-1.21c0.05-0.1,0.11-0.15,0.22-0.15c0.14,0,0.28,0,0.44,0
	c-0.02-0.15,0.08-0.15,0.18-0.15c0.4,0,0.8,0,1.2,0c0.11,0,0.19,0.01,0.2,0.15c0.14,0,0.28,0,0.41,0c0.11,0,0.18,0.04,0.22,0.15
	c0.15,0.33,0.32,0.65,0.45,0.98c0.1,0.25,0.23,0.39,0.51,0.33c0.05-0.01,0.11,0,0.16,0c0.13-0.01,0.22,0.04,0.28,0.15
	c0,0.03,0,0.07,0,0.1c-0.01,0.03-0.03,0.06-0.04,0.09c-0.29,0.72-0.58,1.43-0.86,2.15c-0.05,0.14-0.14,0.2-0.28,0.19
	c-0.4-0.01-0.81,0-1.21,0c-0.7,0-1.4,0-2.1,0c-0.18,0-0.21-0.03-0.28-0.19c-0.03-0.08-0.07-0.16-0.1-0.25
	C17.91,16.37,17.64,15.7,17.37,15.04z M21.88,14.78c-0.02-0.05-0.03-0.08-0.05-0.12c-0.11-0.24-0.22-0.47-0.32-0.71
	c-0.13-0.29-0.13-0.29-0.45-0.28c-0.01,0-0.02,0-0.04,0.01c0,0.12-0.07,0.15-0.18,0.15c-0.4-0.01-0.81,0-1.21,0
	c-0.11,0-0.2-0.01-0.18-0.16c-0.1,0-0.18,0.01-0.27,0c-0.09-0.01-0.13,0.03-0.17,0.11c-0.1,0.23-0.21,0.46-0.31,0.69
	c-0.05,0.1-0.09,0.2-0.14,0.32C19.67,14.78,20.76,14.78,21.88,14.78z M20.1,16.59c-0.28,0-0.54,0-0.8,0c0,0.16,0,0.32,0,0.47
	c0.27,0,0.53,0,0.8,0C20.1,16.9,20.1,16.75,20.1,16.59z M20.09,15.67c0-0.17,0-0.32,0-0.47c-0.27,0-0.53,0-0.79,0
	c0,0.16,0,0.31,0,0.47C19.57,15.67,19.83,15.67,20.09,15.67z M20.09,16.35c0-0.15,0-0.3,0-0.45c-0.27,0-0.53,0-0.79,0
	c0,0.15,0,0.3,0,0.45C19.57,16.35,19.83,16.35,20.09,16.35z M20.33,16.59c0,0.17,0,0.32,0,0.49c0.21,0,0.41,0,0.62,0
	c0.02,0,0.06-0.03,0.06-0.05c0.01-0.14,0-0.28,0-0.43C20.79,16.59,20.57,16.59,20.33,16.59z M21.93,15.66c0-0.17,0-0.32,0-0.47
	c-0.23,0-0.45,0-0.67,0c0,0.16,0,0.31,0,0.47C21.48,15.66,21.7,15.66,21.93,15.66z M21.93,16.59c-0.23,0-0.45,0-0.67,0
	c0,0.17,0,0.32,0,0.49c0.17,0,0.32,0,0.48,0c0.03,0,0.07-0.01,0.07-0.03C21.86,16.9,21.97,16.77,21.93,16.59z M20.33,15.66
	c0.24,0,0.46,0,0.68,0c0-0.16,0-0.31,0-0.46c-0.23,0-0.45,0-0.68,0C20.33,15.35,20.33,15.5,20.33,15.66z M21.25,15.9
	c0,0.15,0,0.3,0,0.44c0.23,0,0.45,0,0.67,0c0-0.16,0-0.3,0-0.44C21.7,15.9,21.48,15.9,21.25,15.9z M20.33,16.35
	c0.24,0,0.46,0,0.68,0c0-0.16,0-0.3,0-0.44c-0.23,0-0.45,0-0.68,0C20.33,16.06,20.33,16.2,20.33,16.35z M19.06,15.67
	c0-0.16,0-0.32,0-0.47c-0.19,0-0.38,0-0.57,0c0,0.16,0,0.31,0,0.47C18.68,15.67,18.86,15.67,19.06,15.67z M18.43,16.59
	c0.06,0.16,0.12,0.3,0.18,0.44c0.01,0.02,0.05,0.05,0.07,0.05c0.12,0.01,0.25,0,0.37,0c0-0.17,0-0.33,0-0.49
	C18.85,16.59,18.65,16.59,18.43,16.59z M18.48,16.35c0.2,0,0.39,0,0.57,0c0-0.15,0-0.3,0-0.44c-0.2,0-0.38,0-0.57,0
	C18.48,16.06,18.48,16.2,18.48,16.35z M18.25,15.19c-0.13,0-0.24,0-0.38,0c0.05,0.12,0.1,0.22,0.13,0.33
	c0.04,0.13,0.11,0.18,0.25,0.13C18.25,15.51,18.25,15.35,18.25,15.19z M22.17,15.19c0,0.16,0,0.31,0,0.5
	c0.08-0.02,0.18-0.02,0.21-0.07c0.08-0.13,0.12-0.28,0.18-0.43C22.42,15.19,22.3,15.19,22.17,15.19z"/>
<path class="st1" d="M22.32,18.88c0.24,0.06,0.41,0.2,0.47,0.45c0.01,0.04,0.01,0.09,0.01,0.13c0,0.34,0,0.67,0,1.02
	c0.08-0.08,0.14-0.18,0.25-0.08c0,1.05,0,2.09,0,3.14c-1,0-2,0-2.99,0c0-0.03,0-0.05,0-0.08c0-0.97,0-1.94,0-2.92
	c0-0.03,0-0.06,0-0.09c0.01-0.09,0.08-0.11,0.15-0.07c0.01,0.01,0.03,0.02,0.05,0.03c0-0.32,0-0.63,0-0.93
	c0-0.1,0.04-0.14,0.14-0.14c0.27,0,0.55,0,0.82,0c0.16,0,0.31,0,0.47,0c0.06-0.26,0.22-0.41,0.47-0.48
	C22.21,18.88,22.26,18.88,22.32,18.88z M22.86,20.73c-0.1,0.11-0.18,0.21-0.26,0.31c-0.09,0.1-0.13,0.1-0.21,0
	c-0.12-0.14-0.24-0.29-0.36-0.43c-0.13,0.15-0.25,0.3-0.37,0.44c-0.07,0.08-0.12,0.08-0.19,0c-0.12-0.15-0.24-0.29-0.37-0.44
	c-0.12,0.15-0.24,0.29-0.36,0.43c-0.08,0.1-0.13,0.1-0.21,0c-0.09-0.1-0.17-0.2-0.27-0.32c0,0.91,0,1.8,0,2.7c0.86,0,1.73,0,2.61,0
	C22.86,22.53,22.86,21.64,22.86,20.73z M21.86,19.53c-0.03,0.17,0.02,0.31,0.16,0.41c0.08,0.06,0.15,0.15,0.23,0.23
	c0.04,0.04,0.09,0.08,0.03,0.13c-0.02,0.02-0.1-0.01-0.13-0.04c-0.1-0.08-0.18-0.18-0.29-0.29c0,0.18,0,0.34,0,0.5
	c0.01,0.01,0.01,0.01,0.02,0.02c0.01-0.02,0.01-0.03,0.02-0.05c0.09-0.1,0.13-0.1,0.22,0.01c0.11,0.13,0.22,0.27,0.33,0.4
	c0,0.01,0.01,0.01,0.02,0.02c0.08-0.07,0.13-0.14,0.13-0.26c-0.01-0.39,0-0.79,0-1.18c0-0.17-0.11-0.3-0.26-0.35
	c-0.14-0.05-0.3,0-0.4,0.12c-0.05,0.06-0.07,0.11,0.01,0.18c0.1,0.08,0.18,0.18,0.27,0.27c0.04,0.04,0.13,0.09,0.06,0.16
	c-0.07,0.07-0.11-0.02-0.15-0.06c-0.08-0.08-0.16-0.17-0.26-0.28C21.87,19.52,21.87,19.53,21.86,19.53z M20.98,20.44
	c0.08-0.09,0.12-0.09,0.2,0c0.12,0.14,0.24,0.29,0.36,0.43c0.13-0.08,0.16-0.19,0.13-0.33c-0.06-0.28-0.32-0.5-0.6-0.49
	c-0.3,0-0.55,0.22-0.62,0.51c-0.03,0.15,0.09,0.22,0.16,0.33C20.74,20.73,20.86,20.59,20.98,20.44z M21.68,19.55
	c-0.41,0-0.81,0-1.22,0c0,0.19,0,0.38,0,0.58c0.39-0.38,0.89-0.32,1.22,0.01C21.68,19.94,21.68,19.75,21.68,19.55z"/>
<path class="st2" d="M16.66,23.12c0,0.23,0.19,0.43,0.43,0.43s0.42-0.19,0.42-0.43c0-0.23-0.19-0.43-0.42-0.43
	S16.66,22.88,16.66,23.12z M14.53,23.12c0,0.23,0.19,0.43,0.43,0.43s0.42-0.19,0.42-0.43c0-0.23-0.19-0.43-0.42-0.43
	S14.53,22.88,14.53,23.12z M17,22.05h-2.47v0.43h2.56c0.23,0,0.43-0.19,0.43-0.43c0-0.07-0.02-0.14-0.05-0.2l-0.29-0.52l0.77-1.62
	h0.43v-0.43h-0.7l-0.2,0.43l-0.2,0.43l-0.48,1.01l-0.03,0.06h-1.5l-0.59-1.07l-0.23-0.43h0l-0.37,0.2l0.82,1.49
	c0.07,0.13,0.21,0.22,0.37,0.22h1.59l0.19,0.35L17.05,22C17.05,22.03,17.02,22.05,17,22.05z"/>
<path class="st2" d="M12.28,20.85c-0.01,0.03-0.01,0.07-0.01,0.11c0,0.81,0,1.61,0,2.42c0,0.2-0.07,0.27-0.27,0.27
	c-1.17,0-2.33,0-3.5,0c-0.2,0-0.27-0.07-0.27-0.27c0-0.8,0-1.6,0-2.41c0-0.06-0.03-0.12-0.05-0.18c-0.05-0.13-0.09-0.26-0.14-0.39
	c0-0.06,0-0.12,0-0.18c0.07-0.24,0.14-0.48,0.21-0.72c0.05-0.17,0.1-0.21,0.28-0.21c1.15,0,2.29,0,3.44,0
	c0.18,0,0.23,0.04,0.28,0.21c0.07,0.24,0.14,0.48,0.21,0.72c0,0.06,0,0.12,0,0.18C12.4,20.54,12.34,20.69,12.28,20.85z M11.83,23.2
	c0-0.67,0-1.33,0-1.99c-0.48,0.09-0.6,0.07-0.97-0.14c-0.41,0.27-0.81,0.27-1.22,0c-0.29,0.21-0.62,0.25-0.97,0.14
	c0,0.67,0,1.33,0,2c0.1,0,0.2,0,0.31,0c0-0.03,0-0.07,0-0.1c0-0.31,0-0.63,0-0.94c0-0.19,0.06-0.25,0.25-0.25c0.22,0,0.45,0,0.67,0
	c0.16,0,0.23,0.07,0.23,0.23c0,0.32,0,0.64,0,0.95c0,0.04,0,0.07,0,0.11C10.71,23.2,11.27,23.2,11.83,23.2z M8.69,19.72
	c-0.02,0-0.05,0.03-0.06,0.05c-0.05,0.17-0.12,0.34-0.14,0.52c-0.01,0.1,0.04,0.22,0.09,0.31c0.17,0.26,0.55,0.32,0.79,0.12
	c0.03-0.02,0.06-0.06,0.06-0.08c0-0.27,0-0.54,0-0.81c0-0.03,0-0.06,0-0.11C9.17,19.72,8.93,19.71,8.69,19.72z M11.08,20.51
	c0,0.18,0.03,0.23,0.21,0.29c0.33,0.12,0.69-0.1,0.74-0.45c0-0.02,0-0.05-0.01-0.08c-0.04-0.16-0.09-0.33-0.14-0.49
	c-0.01-0.03-0.05-0.06-0.08-0.06c-0.24,0-0.47,0-0.72,0C11.08,19.99,11.08,20.25,11.08,20.51z M9.87,19.72c0,0.08,0,0.16,0,0.24
	c0,0.21,0,0.42,0,0.63c0,0.07,0.02,0.11,0.08,0.14c0.19,0.13,0.45,0.12,0.63-0.01c0.03-0.02,0.06-0.07,0.06-0.1
	c0-0.29,0-0.58,0-0.87c0-0.01-0.01-0.02-0.01-0.03C10.38,19.72,10.13,19.72,9.87,19.72z"/>
<path class="st2" d="M5.67,23.05c-0.03,0.08-0.07,0.16-0.1,0.25c-0.07,0.17-0.1,0.19-0.28,0.19c-0.7,0-1.4,0-2.1,0
	c-0.4,0-0.81,0-1.21,0c-0.15,0-0.23-0.06-0.28-0.19c-0.28-0.72-0.57-1.43-0.86-2.15c-0.01-0.03-0.03-0.06-0.04-0.09
	c0-0.03,0-0.07,0-0.1c0.06-0.11,0.15-0.16,0.28-0.15c0.05,0,0.11-0.01,0.16,0c0.28,0.06,0.41-0.08,0.51-0.33
	c0.13-0.34,0.3-0.66,0.45-0.98c0.05-0.1,0.11-0.15,0.22-0.15c0.13,0,0.27,0,0.41,0c0.01-0.14,0.09-0.15,0.2-0.15c0.4,0,0.8,0,1.2,0
	c0.1,0,0.2,0,0.18,0.15c0.16,0,0.3,0,0.44,0c0.11,0,0.18,0.04,0.22,0.15c0.18,0.4,0.38,0.81,0.56,1.21c0.04,0.08,0.08,0.11,0.16,0.1
	c0.13-0.01,0.27,0,0.4,0c0.13-0.01,0.22,0.04,0.28,0.15c0,0.03,0,0.07,0,0.1C6.21,21.72,5.94,22.38,5.67,23.05z M5.3,20.8
	c-0.05-0.11-0.09-0.21-0.14-0.32c-0.1-0.23-0.22-0.46-0.31-0.69c-0.04-0.08-0.08-0.12-0.17-0.11c-0.08,0.01-0.17,0-0.27,0
	c0.01,0.14-0.07,0.16-0.18,0.16c-0.4,0-0.81,0-1.21,0c-0.11,0-0.18-0.02-0.18-0.15c-0.02,0-0.03-0.01-0.04-0.01
	c-0.31-0.01-0.31-0.01-0.45,0.28c-0.11,0.24-0.22,0.47-0.32,0.71c-0.02,0.04-0.03,0.07-0.05,0.12C3.09,20.8,4.18,20.8,5.3,20.8z
	 M3.75,23.08c0.26,0,0.53,0,0.8,0c0-0.15,0-0.31,0-0.47c-0.26,0-0.52,0-0.8,0C3.75,22.77,3.75,22.92,3.75,23.08z M4.55,21.69
	c0-0.16,0-0.31,0-0.47c-0.26,0-0.52,0-0.79,0c0,0.15,0,0.3,0,0.47C4.02,21.69,4.28,21.69,4.55,21.69z M4.55,22.37
	c0-0.15,0-0.29,0-0.45c-0.26,0-0.52,0-0.79,0c0,0.14,0,0.29,0,0.45C4.02,22.37,4.28,22.37,4.55,22.37z M2.83,22.61
	c0,0.15,0,0.29,0,0.43c0,0.02,0.04,0.05,0.06,0.05c0.2,0,0.41,0,0.62,0c0-0.17,0-0.32,0-0.49C3.28,22.61,3.06,22.61,2.83,22.61z
	 M2.59,21.68c0-0.16,0-0.31,0-0.47c-0.23,0-0.44,0-0.67,0c0,0.15,0,0.31,0,0.47C2.15,21.68,2.37,21.68,2.59,21.68z M2.04,23.06
	c0.01,0.02,0.05,0.03,0.07,0.03c0.16,0,0.31,0,0.48,0c0-0.16,0-0.32,0-0.49c-0.22,0-0.44,0-0.67,0C1.88,22.79,1.99,22.92,2.04,23.06
	z M3.52,21.21c-0.23,0-0.45,0-0.68,0c0,0.15,0,0.3,0,0.46c0.22,0,0.45,0,0.68,0C3.52,21.52,3.52,21.37,3.52,21.21z M1.92,21.92
	c0,0.14,0,0.29,0,0.44c0.22,0,0.44,0,0.67,0c0-0.15,0-0.29,0-0.44C2.37,21.92,2.15,21.92,1.92,21.92z M3.52,21.92
	c-0.22,0-0.44,0-0.68,0c0,0.14,0,0.29,0,0.44c0.22,0,0.44,0,0.68,0C3.52,22.22,3.52,22.07,3.52,21.92z M5.36,21.69
	c0-0.16,0-0.31,0-0.47c-0.19,0-0.38,0-0.57,0c0,0.16,0,0.31,0,0.47C4.99,21.69,5.17,21.69,5.36,21.69z M4.8,22.6
	c0,0.16,0,0.32,0,0.49c0.12,0,0.25,0,0.37,0c0.03,0,0.06-0.03,0.07-0.05c0.06-0.14,0.11-0.28,0.18-0.44C5.2,22.6,5,22.6,4.8,22.6z
	 M5.36,21.93c-0.19,0-0.38,0-0.57,0c0,0.14,0,0.29,0,0.44c0.19,0,0.37,0,0.57,0C5.36,22.22,5.36,22.08,5.36,21.93z M5.6,21.68
	c0.13,0.05,0.21,0,0.25-0.13c0.03-0.11,0.08-0.22,0.13-0.33c-0.13,0-0.25,0-0.38,0C5.6,21.37,5.6,21.53,5.6,21.68z M1.29,21.21
	c0.06,0.15,0.11,0.3,0.18,0.43c0.02,0.04,0.12,0.04,0.21,0.07c0-0.18,0-0.34,0-0.5C1.55,21.21,1.43,21.21,1.29,21.21z"/>
</svg>
