<?xml version="1.0" encoding="utf-8"?>
<!-- Generator: Adobe Illustrator 23.0.1, SVG Export Plug-In . SVG Version: 6.00 Build 0)  -->
<svg version="1.1" id="Layer_1" xmlns="http://www.w3.org/2000/svg" xmlns:xlink="http://www.w3.org/1999/xlink" x="0px" y="0px"
	 viewBox="0 0 599 300" style="enable-background:new 0 0 599 300;" xml:space="preserve">
<style type="text/css">
	.st0{fill:#17B200;}
</style>
<path d="M-346.46-177.38c-8.77,0-15.87,7.18-15.87,15.95c0,8.77,7.1,15.95,15.87,15.95s15.95-7.18,15.95-15.95
	C-330.51-170.2-337.69-177.38-346.46-177.38z M-266.7-177.38c-8.77,0-15.87,7.18-15.87,15.95c0,8.77,7.1,15.95,15.87,15.95
	s15.95-7.18,15.95-15.95C-250.75-170.2-257.93-177.38-266.7-177.38z M-345.11-203.3l0.24-0.96l7.18-13h59.42
	c5.98,0,11.25-3.27,13.96-8.22l30.79-55.91l-13.88-7.66h-0.08l-8.77,15.95l-22.01,39.88h-55.99l-1.04-2.15l-17.87-37.73l-7.58-15.95
	l-7.5-15.95h-26.08v15.95h15.95l28.71,60.54l-10.77,19.54c-1.28,2.23-1.99,4.87-1.99,7.66c0,8.77,7.18,15.95,15.95,15.95h95.71
	v-15.95h-92.36C-344.15-201.31-345.11-202.19-345.11-203.3z"/>
<g>
	<path d="M-332.86-257.89h-1.66v-7.02l-6.1-9.27h2.07l4.9,7.89l4.95-7.89h1.93l-6.1,9.27V-257.89z"/>
	<path d="M-307.74-266.04c0,1.24-0.22,2.39-0.64,3.43c-0.43,1.04-1.02,1.94-1.78,2.7c-0.76,0.76-1.66,1.35-2.69,1.78
		c-1.04,0.43-2.16,0.64-3.37,0.64c-1.21,0-2.34-0.21-3.37-0.64c-1.04-0.43-1.93-1.02-2.69-1.78c-0.76-0.76-1.35-1.66-1.78-2.7
		c-0.43-1.04-0.64-2.19-0.64-3.43c0-1.24,0.21-2.39,0.64-3.43c0.43-1.04,1.02-1.94,1.78-2.7c0.76-0.76,1.66-1.35,2.69-1.78
		c1.04-0.43,2.16-0.64,3.37-0.64c1.21,0,2.34,0.22,3.37,0.64c1.04,0.43,1.93,1.02,2.69,1.78c0.76,0.76,1.35,1.66,1.78,2.7
		C-307.95-268.42-307.74-267.28-307.74-266.04z M-309.49-266.03c0-0.95-0.15-1.85-0.46-2.71c-0.31-0.86-0.75-1.61-1.33-2.26
		c-0.58-0.65-1.29-1.17-2.13-1.55c-0.84-0.38-1.78-0.57-2.82-0.57c-1.04,0-1.98,0.19-2.82,0.57c-0.84,0.38-1.55,0.9-2.13,1.55
		c-0.58,0.65-1.03,1.4-1.33,2.26c-0.31,0.86-0.46,1.76-0.46,2.71c0,0.95,0.15,1.85,0.46,2.71c0.31,0.86,0.75,1.61,1.33,2.25
		c0.58,0.64,1.29,1.16,2.13,1.54c0.84,0.38,1.78,0.57,2.82,0.57c1.04,0,1.98-0.19,2.82-0.57c0.84-0.38,1.55-0.9,2.13-1.54
		c0.58-0.64,1.03-1.39,1.33-2.25C-309.64-264.17-309.49-265.08-309.49-266.03z"/>
	<path d="M-295.08-271.56c-0.35-0.49-0.81-0.89-1.36-1.18c-0.55-0.3-1.22-0.45-2-0.45c-0.4,0-0.81,0.06-1.22,0.18
		c-0.41,0.12-0.79,0.31-1.13,0.56c-0.34,0.25-0.61,0.57-0.82,0.95c-0.21,0.38-0.31,0.84-0.31,1.36c0,0.52,0.1,0.95,0.3,1.29
		c0.2,0.34,0.46,0.63,0.79,0.86c0.33,0.24,0.7,0.43,1.12,0.59c0.42,0.15,0.86,0.31,1.32,0.46c0.57,0.18,1.14,0.38,1.71,0.6
		c0.57,0.21,1.09,0.49,1.55,0.84c0.46,0.35,0.83,0.78,1.12,1.31c0.29,0.53,0.44,1.2,0.44,2.01c0,0.81-0.16,1.52-0.47,2.11
		c-0.31,0.59-0.71,1.08-1.21,1.46c-0.5,0.38-1.06,0.67-1.7,0.85c-0.64,0.18-1.28,0.28-1.92,0.28c-0.49,0-0.98-0.05-1.47-0.15
		c-0.49-0.1-0.96-0.25-1.4-0.45c-0.45-0.2-0.86-0.45-1.24-0.76c-0.38-0.31-0.72-0.66-1.01-1.06l1.43-1.06
		c0.35,0.58,0.85,1.07,1.48,1.46c0.64,0.39,1.38,0.59,2.24,0.59c0.41,0,0.84-0.06,1.27-0.2c0.43-0.13,0.82-0.33,1.16-0.6
		c0.35-0.27,0.63-0.6,0.85-0.99c0.22-0.39,0.33-0.85,0.33-1.37c0-0.57-0.11-1.04-0.33-1.42c-0.22-0.38-0.52-0.69-0.89-0.94
		c-0.37-0.25-0.79-0.46-1.27-0.63c-0.48-0.17-0.97-0.34-1.5-0.51c-0.54-0.17-1.07-0.36-1.59-0.58c-0.52-0.21-0.99-0.49-1.4-0.84
		c-0.41-0.35-0.75-0.77-1-1.28c-0.25-0.51-0.38-1.13-0.38-1.86c0-0.78,0.16-1.46,0.47-2.02c0.31-0.57,0.72-1.04,1.23-1.4
		c0.51-0.37,1.07-0.64,1.68-0.81c0.61-0.17,1.22-0.25,1.82-0.25c1.1,0,2.05,0.2,2.83,0.59c0.78,0.39,1.37,0.86,1.77,1.39
		L-295.08-271.56z"/>
	<path d="M-272.58-266.04c0,1.24-0.22,2.39-0.64,3.43c-0.43,1.04-1.02,1.94-1.78,2.7c-0.76,0.76-1.66,1.35-2.69,1.78
		c-1.04,0.43-2.16,0.64-3.37,0.64c-1.21,0-2.34-0.21-3.37-0.64c-1.04-0.43-1.93-1.02-2.69-1.78c-0.76-0.76-1.35-1.66-1.78-2.7
		c-0.43-1.04-0.64-2.19-0.64-3.43c0-1.24,0.21-2.39,0.64-3.43c0.43-1.04,1.02-1.94,1.78-2.7c0.76-0.76,1.66-1.35,2.69-1.78
		c1.04-0.43,2.16-0.64,3.37-0.64c1.21,0,2.34,0.22,3.37,0.64c1.04,0.43,1.93,1.02,2.69,1.78c0.76,0.76,1.35,1.66,1.78,2.7
		C-272.8-268.42-272.58-267.28-272.58-266.04z M-274.33-266.03c0-0.95-0.15-1.85-0.46-2.71c-0.31-0.86-0.75-1.61-1.33-2.26
		c-0.58-0.65-1.29-1.17-2.13-1.55c-0.84-0.38-1.78-0.57-2.82-0.57c-1.04,0-1.98,0.19-2.82,0.57c-0.84,0.38-1.55,0.9-2.13,1.55
		c-0.58,0.65-1.03,1.4-1.33,2.26c-0.31,0.86-0.46,1.76-0.46,2.71c0,0.95,0.15,1.85,0.46,2.71c0.31,0.86,0.75,1.61,1.33,2.25
		c0.58,0.64,1.29,1.16,2.13,1.54c0.84,0.38,1.78,0.57,2.82,0.57c1.04,0,1.98-0.19,2.82-0.57c0.84-0.38,1.55-0.9,2.13-1.54
		c0.58-0.64,1.03-1.39,1.33-2.25C-274.48-264.17-274.33-265.08-274.33-266.03z"/>
</g>
<g>
	<path class="st0" d="M233.82,196h-8.74v-37.04l-32.18-48.94h10.93l25.87,41.65l26.11-41.65h10.2l-32.18,48.94V196z"/>
	<path class="st0" d="M366.44,153.01c0,6.56-1.14,12.59-3.4,18.09c-2.27,5.51-5.4,10.26-9.41,14.27c-4.01,4.01-8.74,7.15-14.21,9.41
		c-5.46,2.27-11.4,3.4-17.79,3.4c-6.4,0-12.33-1.13-17.79-3.4c-5.46-2.27-10.2-5.4-14.21-9.41c-4.01-4.01-7.15-8.76-9.41-14.27
		c-2.27-5.51-3.4-11.54-3.4-18.09c0-6.56,1.13-12.59,3.4-18.1c2.27-5.5,5.4-10.26,9.41-14.27c4.01-4.01,8.74-7.14,14.21-9.41
		c5.46-2.27,11.39-3.4,17.79-3.4c6.39,0,12.33,1.14,17.79,3.4c5.46,2.27,10.2,5.4,14.21,9.41c4.01,4.01,7.14,8.76,9.41,14.27
		C365.3,140.42,366.44,146.45,366.44,153.01z M357.21,153.07c0-5.01-0.81-9.78-2.43-14.31c-1.62-4.53-3.97-8.51-7.04-11.94
		c-3.08-3.43-6.82-6.16-11.23-8.18c-4.41-2.02-9.37-3.03-14.88-3.03c-5.51,0-10.46,1.01-14.88,3.03c-4.41,2.02-8.16,4.75-11.23,8.18
		c-3.08,3.43-5.42,7.41-7.04,11.94c-1.62,4.53-2.43,9.3-2.43,14.31c0,5.01,0.81,9.78,2.43,14.31c1.62,4.53,3.97,8.49,7.04,11.88
		c3.08,3.39,6.82,6.1,11.23,8.12c4.41,2.02,9.37,3.03,14.88,3.03c5.51,0,10.46-1.01,14.88-3.03c4.41-2.02,8.16-4.73,11.23-8.12
		c3.08-3.39,5.42-7.35,7.04-11.88C356.4,162.85,357.21,158.08,357.21,153.07z"/>
	<path class="st0" d="M433.23,123.86c-1.86-2.59-4.25-4.67-7.16-6.25c-2.92-1.58-6.44-2.37-10.57-2.37c-2.11,0-4.25,0.33-6.44,0.97
		c-2.19,0.65-4.17,1.64-5.95,2.98c-1.78,1.34-3.22,3.02-4.31,5.04c-1.09,2.02-1.64,4.41-1.64,7.17c0,2.75,0.52,5.02,1.57,6.8
		c1.05,1.78,2.44,3.3,4.18,4.55c1.74,1.26,3.72,2.29,5.94,3.1c2.22,0.81,4.54,1.62,6.96,2.43c2.99,0.97,5.99,2.02,9.02,3.16
		c3.03,1.13,5.75,2.61,8.18,4.43c2.42,1.82,4.4,4.13,5.93,6.92c1.53,2.79,2.3,6.34,2.3,10.63c0,4.29-0.82,8-2.46,11.11
		c-1.64,3.12-3.76,5.69-6.38,7.71c-2.62,2.02-5.6,3.52-8.96,4.49c-3.36,0.97-6.74,1.46-10.14,1.46c-2.59,0-5.18-0.26-7.77-0.79
		c-2.59-0.53-5.06-1.32-7.41-2.37c-2.35-1.05-4.54-2.39-6.56-4.01c-2.02-1.62-3.81-3.48-5.34-5.59l7.53-5.59
		c1.86,3.08,4.47,5.65,7.83,7.71c3.36,2.06,7.31,3.1,11.84,3.1c2.19,0,4.41-0.34,6.68-1.03c2.27-0.69,4.31-1.74,6.13-3.16
		c1.82-1.42,3.32-3.16,4.49-5.22c1.17-2.06,1.76-4.47,1.76-7.23c0-2.99-0.59-5.48-1.76-7.47c-1.17-1.98-2.73-3.64-4.67-4.98
		s-4.17-2.45-6.68-3.34c-2.51-0.89-5.14-1.78-7.89-2.67c-2.83-0.89-5.63-1.9-8.38-3.04c-2.75-1.13-5.22-2.61-7.41-4.43
		s-3.95-4.07-5.28-6.74s-2-5.95-2-9.84c0-4.13,0.83-7.69,2.49-10.69c1.66-2.99,3.83-5.46,6.5-7.41c2.67-1.94,5.63-3.36,8.87-4.25
		c3.24-0.89,6.44-1.34,9.59-1.34c5.83,0,10.81,1.03,14.94,3.1c4.13,2.06,7.24,4.51,9.35,7.35L433.23,123.86z"/>
	<path class="st0" d="M552,153.01c0,6.56-1.14,12.59-3.4,18.09c-2.27,5.51-5.4,10.26-9.41,14.27c-4.01,4.01-8.74,7.15-14.21,9.41
		c-5.46,2.27-11.4,3.4-17.79,3.4c-6.4,0-12.33-1.13-17.79-3.4c-5.46-2.27-10.2-5.4-14.21-9.41c-4.01-4.01-7.15-8.76-9.41-14.27
		c-2.27-5.51-3.4-11.54-3.4-18.09c0-6.56,1.13-12.59,3.4-18.1c2.27-5.5,5.4-10.26,9.41-14.27c4.01-4.01,8.74-7.14,14.21-9.41
		c5.46-2.27,11.39-3.4,17.79-3.4c6.39,0,12.33,1.14,17.79,3.4c5.46,2.27,10.2,5.4,14.21,9.41c4.01,4.01,7.14,8.76,9.41,14.27
		C550.86,140.42,552,146.45,552,153.01z M542.77,153.07c0-5.01-0.81-9.78-2.43-14.31c-1.62-4.53-3.97-8.51-7.04-11.94
		c-3.08-3.43-6.82-6.16-11.23-8.18c-4.41-2.02-9.37-3.03-14.88-3.03c-5.51,0-10.46,1.01-14.88,3.03c-4.41,2.02-8.16,4.75-11.23,8.18
		c-3.08,3.43-5.42,7.41-7.04,11.94c-1.62,4.53-2.43,9.3-2.43,14.31c0,5.01,0.81,9.78,2.43,14.31c1.62,4.53,3.97,8.49,7.04,11.88
		c3.08,3.39,6.82,6.1,11.23,8.12c4.41,2.02,9.37,3.03,14.88,3.03c5.51,0,10.46-1.01,14.88-3.03c4.41-2.02,8.16-4.73,11.23-8.12
		c3.08-3.39,5.42-7.35,7.04-11.88C541.96,162.85,542.77,158.08,542.77,153.07z"/>
</g>
<path class="st0" d="M68,173.2c-3.84,0-6.95,3.14-6.95,6.98s3.11,6.98,6.95,6.98s6.98-3.14,6.98-6.98S71.84,173.2,68,173.2z
	 M102.92,173.2c-3.84,0-6.95,3.14-6.95,6.98s3.11,6.98,6.95,6.98c3.84,0,6.98-3.14,6.98-6.98S106.76,173.2,102.92,173.2z
	 M68.6,161.85l0.1-0.42l3.14-5.69h26.01c2.62,0,4.92-1.43,6.11-3.6l13.48-24.48l-6.08-3.35h-0.03l-3.84,6.98l-9.64,17.46H73.35
	l-0.45-0.94l-7.82-16.52l-3.32-6.98l-3.28-6.98H47.05v6.98h6.98l12.57,26.5l-4.71,8.56c-0.56,0.98-0.87,2.13-0.87,3.35
	c0,3.84,3.14,6.98,6.98,6.98h41.9v-6.98H69.47C69.02,162.72,68.6,162.34,68.6,161.85z"/>
<rect x="149.47" y="81.64" class="st0" width="6.4" height="142.72"/>
</svg>
