<?xml version="1.0" encoding="utf-8"?>
<!-- Generator: Adobe Illustrator 23.0.1, SVG Export Plug-In . SVG Version: 6.00 Build 0)  -->
<svg version="1.1" id="Layer_1" xmlns="http://www.w3.org/2000/svg" xmlns:xlink="http://www.w3.org/1999/xlink" x="0px" y="0px"
	 viewBox="0 0 24 24" style="enable-background:new 0 0 24 24;" xml:space="preserve">
<style type="text/css">
	.st0{opacity:0.25;fill:#17B200;}
	.st1{opacity:0.25;fill:#FFFFFF;}
</style>
<path class="st0" d="M56.09-15c-5.52,0-10,4.48-10,10s4.48,10,10,10s10-4.48,10-10S61.61-15,56.09-15z M56.09-12c1.66,0,3,1.34,3,3
	s-1.34,3-3,3s-3-1.34-3-3S54.43-12,56.09-12z M56.09,2.2c-2.5,0-4.71-1.28-6-3.22c0.03-1.99,4-3.08,6-3.08c1.99,0,5.97,1.09,6,3.08
	C60.8,0.92,58.59,2.2,56.09,2.2z"/>
<path class="st1" d="M9.47,2.2c1.03,0.28,1.73,0.89,1.96,2c0.66,0,1.31,0,1.96,0c1.15,0,2.29,0.01,3.44,0
	c0.41,0,0.58,0.16,0.57,0.57c-0.01,1.29,0,2.58,0,3.92c0.09-0.06,0.15-0.1,0.22-0.13c0.31-0.18,0.58-0.06,0.63,0.29
	c0.02,0.13,0.01,0.26,0.01,0.39c0,4.07,0,8.15,0,12.22c0,0.12,0.01,0.23,0.01,0.35c-4.17,0-8.35,0-12.54,0c0-4.38,0-8.77,0-13.15
	c0.46-0.44,0.72,0,1.04,0.31c0-1.48,0-2.89,0-4.29c0-0.19,0.01-0.38,0.04-0.56C7.04,3.04,7.75,2.46,8.78,2.2
	C9.01,2.2,9.24,2.2,9.47,2.2z M6.53,21.24c3.67,0,7.31,0,10.92,0c0-3.77,0-7.5,0-11.31c-0.41,0.48-0.76,0.91-1.11,1.32
	c-0.34,0.39-0.52,0.39-0.86-0.02c-0.5-0.6-1-1.19-1.52-1.81c-0.54,0.64-1.04,1.26-1.56,1.86c-0.29,0.35-0.51,0.35-0.81-0.01
	c-0.51-0.61-1.02-1.22-1.55-1.86c-0.52,0.62-1.02,1.22-1.52,1.82c-0.35,0.41-0.53,0.41-0.89-0.02c-0.35-0.41-0.7-0.82-1.1-1.3
	C6.53,13.76,6.53,17.49,6.53,21.24z M10.65,4.67c-0.42,0.45-0.75,0.83-1.11,1.18C9.37,6.01,9.19,6.37,8.91,6.09
	c-0.3-0.3,0.08-0.48,0.25-0.66C9.53,5.04,9.89,4.64,10.3,4.3c0.33-0.28,0.25-0.49,0.03-0.75c-0.41-0.49-1.1-0.7-1.69-0.51
	C7.99,3.26,7.55,3.81,7.55,4.51C7.53,6.16,7.57,7.81,7.53,9.46c-0.01,0.5,0.23,0.79,0.56,1.08c0.04-0.04,0.07-0.06,0.09-0.08
	C8.64,9.91,9.11,9.35,9.57,8.8c0.38-0.46,0.54-0.47,0.92-0.03c0.04,0.05,0.06,0.13,0.09,0.19c0.03-0.02,0.05-0.05,0.08-0.07
	c0-0.67,0-1.35,0-2.1c-0.44,0.44-0.8,0.84-1.2,1.2C9.33,8.1,9.02,8.2,8.93,8.13C8.68,7.95,8.89,7.76,9.05,7.6
	c0.32-0.32,0.61-0.67,0.96-0.95c0.59-0.45,0.8-1.02,0.68-1.74C10.68,4.89,10.68,4.87,10.65,4.67z M15.92,10.58
	c0.31-0.46,0.82-0.73,0.69-1.37c-0.25-1.2-1.33-2.11-2.58-2.12c-1.18-0.01-2.27,0.89-2.52,2.07c-0.12,0.57,0,1.04,0.53,1.38
	c0.51-0.61,1.01-1.21,1.51-1.81c0.32-0.38,0.51-0.37,0.83,0.01C14.88,9.34,15.38,9.94,15.92,10.58z M11.47,7.47
	c1.41-1.39,3.47-1.61,5.12-0.03c0-0.82,0-1.63,0-2.44c-1.73,0-3.41,0-5.12,0C11.47,5.83,11.47,6.62,11.47,7.47z"/>
</svg>
