<?xml version="1.0" encoding="utf-8"?>
<!-- Generator: Adobe Illustrator 23.0.1, SVG Export Plug-In . SVG Version: 6.00 Build 0)  -->
<svg version="1.1" id="Layer_1" xmlns="http://www.w3.org/2000/svg" xmlns:xlink="http://www.w3.org/1999/xlink" x="0px" y="0px"
	 viewBox="0 0 599 300" style="enable-background:new 0 0 599 300;" xml:space="preserve">
<style type="text/css">
	.st0{fill:#FFFFFF;}
</style>
<path class="st0" d="M251.82,178h-8.74v-37.04L210.9,92.02h10.93l25.87,41.65l26.11-41.65h10.2l-32.18,48.94V178z"/>
<path class="st0" d="M382.44,135.01c0,6.56-1.14,12.59-3.4,18.09c-2.27,5.51-5.4,10.26-9.41,14.27c-4.01,4.01-8.74,7.15-14.21,9.41
	c-5.46,2.27-11.4,3.4-17.79,3.4c-6.4,0-12.33-1.13-17.79-3.4c-5.46-2.27-10.2-5.4-14.21-9.41c-4.01-4.01-7.15-8.76-9.41-14.27
	c-2.27-5.51-3.4-11.54-3.4-18.09c0-6.56,1.13-12.59,3.4-18.1c2.27-5.5,5.4-10.26,9.41-14.27c4.01-4.01,8.74-7.14,14.21-9.41
	c5.46-2.27,11.39-3.4,17.79-3.4c6.39,0,12.33,1.14,17.79,3.4c5.46,2.27,10.2,5.4,14.21,9.41c4.01,4.01,7.14,8.76,9.41,14.27
	C381.3,122.42,382.44,128.45,382.44,135.01z M373.21,135.07c0-5.01-0.81-9.78-2.43-14.31c-1.62-4.53-3.97-8.51-7.04-11.94
	c-3.08-3.43-6.82-6.16-11.23-8.18c-4.41-2.02-9.37-3.03-14.88-3.03c-5.51,0-10.46,1.01-14.88,3.03c-4.41,2.02-8.16,4.75-11.23,8.18
	c-3.08,3.43-5.42,7.41-7.04,11.94c-1.62,4.53-2.43,9.3-2.43,14.31c0,5.01,0.81,9.78,2.43,14.31c1.62,4.53,3.97,8.49,7.04,11.88
	c3.08,3.39,6.82,6.1,11.23,8.12c4.41,2.02,9.37,3.03,14.88,3.03c5.51,0,10.46-1.01,14.88-3.03c4.41-2.02,8.16-4.73,11.23-8.12
	c3.08-3.39,5.42-7.35,7.04-11.88C372.4,144.85,373.21,140.08,373.21,135.07z"/>
<path class="st0" d="M453.23,105.86c-1.86-2.59-4.25-4.67-7.16-6.25c-2.92-1.58-6.44-2.37-10.57-2.37c-2.11,0-4.25,0.33-6.44,0.97
	c-2.19,0.65-4.17,1.64-5.95,2.98c-1.78,1.34-3.22,3.02-4.31,5.04c-1.09,2.02-1.64,4.41-1.64,7.17c0,2.75,0.52,5.02,1.57,6.8
	c1.05,1.78,2.44,3.3,4.18,4.55c1.74,1.26,3.72,2.29,5.94,3.1c2.22,0.81,4.54,1.62,6.96,2.43c2.99,0.97,5.99,2.02,9.02,3.16
	c3.03,1.13,5.75,2.61,8.18,4.43c2.42,1.82,4.4,4.13,5.93,6.92c1.53,2.79,2.3,6.34,2.3,10.63c0,4.29-0.82,8-2.46,11.11
	c-1.64,3.12-3.76,5.69-6.38,7.71c-2.62,2.02-5.6,3.52-8.96,4.49c-3.36,0.97-6.74,1.46-10.14,1.46c-2.59,0-5.18-0.26-7.77-0.79
	c-2.59-0.53-5.06-1.32-7.41-2.37c-2.35-1.05-4.54-2.39-6.56-4.01c-2.02-1.62-3.81-3.48-5.34-5.59l7.53-5.59
	c1.86,3.08,4.47,5.65,7.83,7.71c3.36,2.06,7.31,3.1,11.84,3.1c2.19,0,4.41-0.34,6.68-1.03c2.27-0.69,4.31-1.74,6.13-3.16
	c1.82-1.42,3.32-3.16,4.49-5.22c1.17-2.06,1.76-4.47,1.76-7.23c0-2.99-0.59-5.48-1.76-7.47c-1.17-1.98-2.73-3.64-4.67-4.98
	s-4.17-2.45-6.68-3.34c-2.51-0.89-5.14-1.78-7.89-2.67c-2.83-0.89-5.63-1.9-8.38-3.04c-2.75-1.13-5.22-2.61-7.41-4.43
	s-3.95-4.07-5.28-6.74c-1.34-2.67-2-5.95-2-9.84c0-4.13,0.83-7.69,2.49-10.69c1.66-2.99,3.83-5.46,6.5-7.41
	c2.67-1.94,5.63-3.36,8.87-4.25c3.24-0.89,6.44-1.34,9.59-1.34c5.83,0,10.81,1.03,14.94,3.1c4.13,2.06,7.24,4.51,9.35,7.35
	L453.23,105.86z"/>
<path class="st0" d="M576,135.01c0,6.56-1.14,12.59-3.4,18.09c-2.27,5.51-5.4,10.26-9.41,14.27c-4.01,4.01-8.74,7.15-14.21,9.41
	c-5.46,2.27-11.4,3.4-17.79,3.4c-6.4,0-12.33-1.13-17.79-3.4c-5.46-2.27-10.2-5.4-14.21-9.41c-4.01-4.01-7.15-8.76-9.41-14.27
	c-2.27-5.51-3.4-11.54-3.4-18.09c0-6.56,1.13-12.59,3.4-18.1c2.27-5.5,5.4-10.26,9.41-14.27c4.01-4.01,8.74-7.14,14.21-9.41
	c5.47-2.27,11.39-3.4,17.79-3.4c6.39,0,12.33,1.14,17.79,3.4c5.46,2.27,10.2,5.4,14.21,9.41c4.01,4.01,7.14,8.76,9.41,14.27
	C574.86,122.42,576,128.45,576,135.01z M566.77,135.07c0-5.01-0.81-9.78-2.43-14.31c-1.62-4.53-3.97-8.51-7.04-11.94
	c-3.08-3.43-6.82-6.16-11.23-8.18c-4.41-2.02-9.37-3.03-14.88-3.03c-5.51,0-10.46,1.01-14.88,3.03c-4.41,2.02-8.16,4.75-11.23,8.18
	c-3.08,3.43-5.42,7.41-7.04,11.94c-1.62,4.53-2.43,9.3-2.43,14.31c0,5.01,0.81,9.78,2.43,14.31c1.62,4.53,3.97,8.49,7.04,11.88
	c3.08,3.39,6.82,6.1,11.23,8.12c4.41,2.02,9.37,3.03,14.88,3.03c5.51,0,10.46-1.01,14.88-3.03c4.41-2.02,8.16-4.73,11.23-8.12
	c3.08-3.39,5.42-7.35,7.04-11.88C565.96,144.85,566.77,140.08,566.77,135.07z"/>
<path class="st0" d="M54.41,181.59c-5.75,0-10.4,4.7-10.4,10.45s4.65,10.45,10.4,10.45s10.45-4.7,10.45-10.45
	S60.15,181.59,54.41,181.59z M106.65,181.59c-5.75,0-10.4,4.7-10.4,10.45s4.65,10.45,10.4,10.45c5.75,0,10.45-4.7,10.45-10.45
	S112.4,181.59,106.65,181.59z M55.3,164.61l0.16-0.63l4.7-8.52h38.92c3.92,0,7.37-2.14,9.14-5.38l20.17-36.62l-9.09-5.02h-0.05
	l-5.75,10.45l-14.42,26.12H62.4l-0.68-1.41l-11.7-24.71l-4.96-10.45L40.14,98H23.06v10.45h10.45l18.81,39.66l-7.05,12.8
	c-0.84,1.46-1.31,3.19-1.31,5.02c0,5.75,4.7,10.45,10.45,10.45h62.7v-10.45H56.6C55.92,165.92,55.3,165.35,55.3,164.61z"/>
<rect x="169.47" y="68.64" class="st0" width="6.4" height="163.36"/>
<path class="st0" d="M226.5,210.24h-1.39v-5.88l-5.11-7.77h1.74l4.11,6.61l4.15-6.61h1.62l-5.11,7.77V210.24z"/>
<path class="st0" d="M254.11,203.42c0,1.04-0.18,2-0.54,2.87c-0.36,0.87-0.86,1.63-1.49,2.27c-0.64,0.64-1.39,1.13-2.26,1.49
	c-0.87,0.36-1.81,0.54-2.82,0.54c-1.02,0-1.96-0.18-2.83-0.54c-0.87-0.36-1.62-0.86-2.26-1.49s-1.13-1.39-1.49-2.27
	c-0.36-0.87-0.54-1.83-0.54-2.87s0.18-2,0.54-2.87c0.36-0.87,0.86-1.63,1.49-2.27s1.39-1.13,2.26-1.49
	c0.87-0.36,1.81-0.54,2.83-0.54c1.02,0,1.96,0.18,2.82,0.54c0.87,0.36,1.62,0.86,2.26,1.49c0.64,0.64,1.13,1.39,1.49,2.27
	C253.93,201.42,254.11,202.38,254.11,203.42z M252.65,203.43c0-0.8-0.13-1.55-0.39-2.27c-0.26-0.72-0.63-1.35-1.12-1.9
	c-0.49-0.55-1.08-0.98-1.78-1.3c-0.7-0.32-1.49-0.48-2.36-0.48c-0.87,0-1.66,0.16-2.36,0.48c-0.7,0.32-1.3,0.75-1.78,1.3
	c-0.49,0.55-0.86,1.18-1.12,1.9c-0.26,0.72-0.39,1.48-0.39,2.27s0.13,1.55,0.39,2.27c0.26,0.72,0.63,1.35,1.12,1.89
	c0.49,0.54,1.08,0.97,1.78,1.29c0.7,0.32,1.49,0.48,2.36,0.48c0.87,0,1.66-0.16,2.36-0.48c0.7-0.32,1.3-0.75,1.78-1.29
	c0.49-0.54,0.86-1.17,1.12-1.89C252.52,204.98,252.65,204.22,252.65,203.43z"/>
<path class="st0" d="M269.69,210.59c-1.03,0-1.87-0.18-2.53-0.53c-0.66-0.35-1.18-0.8-1.56-1.34c-0.39-0.54-0.65-1.13-0.8-1.76
	c-0.15-0.64-0.22-1.24-0.22-1.8v-8.56h1.39V205c0,0.55,0.06,1.09,0.19,1.61c0.13,0.52,0.34,0.98,0.63,1.39
	c0.29,0.4,0.67,0.73,1.15,0.98c0.48,0.25,1.06,0.38,1.75,0.38c0.69,0,1.28-0.13,1.75-0.38c0.48-0.25,0.86-0.58,1.15-0.98
	s0.5-0.87,0.63-1.39c0.13-0.52,0.19-1.06,0.19-1.61v-8.41h1.39v8.56c0,0.57-0.07,1.17-0.22,1.8c-0.15,0.64-0.41,1.22-0.8,1.76
	c-0.39,0.54-0.91,0.99-1.57,1.34C271.54,210.41,270.71,210.59,269.69,210.59z"/>
<path class="st0" d="M316.98,203.42c0,1.04-0.18,2-0.54,2.87c-0.36,0.87-0.86,1.63-1.49,2.27c-0.64,0.64-1.39,1.13-2.26,1.49
	c-0.87,0.36-1.81,0.54-2.82,0.54c-1.02,0-1.96-0.18-2.83-0.54c-0.87-0.36-1.62-0.86-2.26-1.49c-0.64-0.64-1.13-1.39-1.49-2.27
	c-0.36-0.87-0.54-1.83-0.54-2.87s0.18-2,0.54-2.87c0.36-0.87,0.86-1.63,1.49-2.27c0.64-0.64,1.39-1.13,2.26-1.49
	c0.87-0.36,1.81-0.54,2.83-0.54c1.02,0,1.96,0.18,2.82,0.54c0.87,0.36,1.62,0.86,2.26,1.49c0.64,0.64,1.13,1.39,1.49,2.27
	C316.8,201.42,316.98,202.38,316.98,203.42z M315.51,203.43c0-0.8-0.13-1.55-0.39-2.27c-0.26-0.72-0.63-1.35-1.12-1.9
	c-0.49-0.55-1.08-0.98-1.78-1.3c-0.7-0.32-1.49-0.48-2.36-0.48c-0.87,0-1.66,0.16-2.36,0.48c-0.7,0.32-1.3,0.75-1.78,1.3
	c-0.49,0.55-0.86,1.18-1.12,1.9c-0.26,0.72-0.39,1.48-0.39,2.27s0.13,1.55,0.39,2.27c0.26,0.72,0.63,1.35,1.12,1.89
	c0.49,0.54,1.08,0.97,1.78,1.29c0.7,0.32,1.49,0.48,2.36,0.48c0.87,0,1.66-0.16,2.36-0.48c0.7-0.32,1.3-0.75,1.78-1.29
	c0.49-0.54,0.86-1.17,1.12-1.89C315.38,204.98,315.51,204.22,315.51,203.43z"/>
<path class="st0" d="M337.2,208.22h0.04v-11.63h1.39v13.65h-1.74l-7.94-11.74h-0.04v11.74h-1.39v-13.65h1.74L337.2,208.22z"/>
<path class="st0" d="M351.3,209.01h6.36v1.23h-7.75v-13.65h1.39V209.01z"/>
<path class="st0" d="M370.35,210.24h-1.39v-5.88l-5.11-7.77h1.74l4.11,6.61l4.15-6.61h1.62l-5.11,7.77V210.24z"/>
<path class="st0" d="M406.56,198.79c-0.3-0.41-0.67-0.74-1.14-0.99s-1.02-0.38-1.68-0.38c-0.33,0-0.67,0.05-1.02,0.15
	c-0.35,0.1-0.66,0.26-0.95,0.47c-0.28,0.21-0.51,0.48-0.68,0.8c-0.17,0.32-0.26,0.7-0.26,1.14s0.08,0.8,0.25,1.08
	c0.17,0.28,0.39,0.52,0.66,0.72c0.28,0.2,0.59,0.36,0.94,0.49c0.35,0.13,0.72,0.26,1.11,0.39c0.47,0.15,0.95,0.32,1.43,0.5
	c0.48,0.18,0.91,0.41,1.3,0.7c0.38,0.29,0.7,0.66,0.94,1.1c0.24,0.44,0.36,1.01,0.36,1.69c0,0.68-0.13,1.27-0.39,1.76
	c-0.26,0.5-0.6,0.9-1.01,1.22c-0.42,0.32-0.89,0.56-1.42,0.71c-0.53,0.15-1.07,0.23-1.61,0.23c-0.41,0-0.82-0.04-1.23-0.13
	c-0.41-0.08-0.8-0.21-1.18-0.38c-0.37-0.17-0.72-0.38-1.04-0.64c-0.32-0.26-0.6-0.55-0.85-0.89l1.2-0.89
	c0.3,0.49,0.71,0.9,1.24,1.22c0.53,0.33,1.16,0.49,1.88,0.49c0.35,0,0.7-0.05,1.06-0.16c0.36-0.11,0.68-0.28,0.97-0.5
	c0.29-0.22,0.53-0.5,0.71-0.83c0.19-0.33,0.28-0.71,0.28-1.15c0-0.48-0.09-0.87-0.28-1.19c-0.19-0.32-0.43-0.58-0.74-0.79
	c-0.31-0.21-0.66-0.39-1.06-0.53c-0.4-0.14-0.82-0.28-1.25-0.42c-0.45-0.14-0.89-0.3-1.33-0.48s-0.83-0.41-1.18-0.7
	c-0.35-0.29-0.63-0.65-0.84-1.07c-0.21-0.42-0.32-0.95-0.32-1.56c0-0.66,0.13-1.22,0.4-1.7c0.26-0.48,0.61-0.87,1.03-1.18
	c0.42-0.31,0.89-0.53,1.41-0.67c0.51-0.14,1.02-0.21,1.52-0.21c0.93,0,1.72,0.16,2.37,0.49c0.66,0.33,1.15,0.72,1.48,1.17
	L406.56,198.79z"/>
<path class="st0" d="M418.47,196.59h1.39v5.92h7.44v-5.92h1.39v13.65h-1.39v-6.46h-7.44v6.46h-1.39V196.59z"/>
<path class="st0" d="M453.47,203.42c0,1.04-0.18,2-0.54,2.87c-0.36,0.87-0.86,1.63-1.49,2.27c-0.64,0.64-1.39,1.13-2.26,1.49
	c-0.87,0.36-1.81,0.54-2.82,0.54c-1.02,0-1.96-0.18-2.83-0.54c-0.87-0.36-1.62-0.86-2.26-1.49c-0.64-0.64-1.13-1.39-1.49-2.27
	c-0.36-0.87-0.54-1.83-0.54-2.87s0.18-2,0.54-2.87c0.36-0.87,0.86-1.63,1.49-2.27c0.64-0.64,1.39-1.13,2.26-1.49
	c0.87-0.36,1.81-0.54,2.83-0.54c1.01,0,1.96,0.18,2.82,0.54c0.87,0.36,1.62,0.86,2.26,1.49c0.64,0.64,1.13,1.39,1.49,2.27
	C453.29,201.42,453.47,202.38,453.47,203.42z M452,203.43c0-0.8-0.13-1.55-0.39-2.27c-0.26-0.72-0.63-1.35-1.12-1.9
	c-0.49-0.55-1.08-0.98-1.78-1.3c-0.7-0.32-1.49-0.48-2.36-0.48s-1.66,0.16-2.36,0.48c-0.7,0.32-1.29,0.75-1.78,1.3
	c-0.49,0.55-0.86,1.18-1.12,1.9c-0.26,0.72-0.39,1.48-0.39,2.27s0.13,1.55,0.39,2.27c0.26,0.72,0.63,1.35,1.12,1.89
	c0.49,0.54,1.08,0.97,1.78,1.29c0.7,0.32,1.49,0.48,2.36,0.48s1.66-0.16,2.36-0.48c0.7-0.32,1.3-0.75,1.78-1.29
	c0.49-0.54,0.86-1.17,1.12-1.89C451.88,204.98,452,204.22,452,203.43z"/>
<path class="st0" d="M464.02,196.59h3.86c0.69,0,1.32,0.07,1.89,0.22c0.56,0.15,1.05,0.37,1.46,0.67c0.4,0.3,0.72,0.68,0.93,1.14
	c0.22,0.46,0.33,0.99,0.33,1.61c0,0.62-0.11,1.15-0.34,1.61c-0.23,0.46-0.54,0.84-0.95,1.14c-0.4,0.3-0.89,0.53-1.46,0.68
	c-0.57,0.15-1.21,0.23-1.9,0.23h-2.43v6.34h-1.39V196.59z M465.41,202.72h2.35c1.09,0,1.92-0.21,2.49-0.64
	c0.57-0.42,0.85-1.04,0.85-1.85c0-0.85-0.29-1.47-0.88-1.86c-0.58-0.39-1.4-0.59-2.46-0.59h-2.35V202.72z"/>
<path class="st0" d="M508.83,203.42c0,1.04-0.18,2-0.54,2.87c-0.36,0.87-0.86,1.63-1.49,2.27c-0.64,0.64-1.39,1.13-2.26,1.49
	c-0.87,0.36-1.81,0.54-2.82,0.54c-1.02,0-1.96-0.18-2.83-0.54c-0.87-0.36-1.62-0.86-2.26-1.49c-0.64-0.64-1.13-1.39-1.49-2.27
	c-0.36-0.87-0.54-1.83-0.54-2.87s0.18-2,0.54-2.87c0.36-0.87,0.86-1.63,1.49-2.27c0.64-0.64,1.39-1.13,2.26-1.49
	c0.87-0.36,1.81-0.54,2.83-0.54c1.01,0,1.96,0.18,2.82,0.54c0.87,0.36,1.62,0.86,2.26,1.49c0.64,0.64,1.13,1.39,1.49,2.27
	C508.65,201.42,508.83,202.38,508.83,203.42z M507.36,203.43c0-0.8-0.13-1.55-0.39-2.27c-0.26-0.72-0.63-1.35-1.12-1.9
	c-0.49-0.55-1.08-0.98-1.78-1.3c-0.7-0.32-1.49-0.48-2.36-0.48s-1.66,0.16-2.36,0.48c-0.7,0.32-1.29,0.75-1.78,1.3
	c-0.49,0.55-0.86,1.18-1.12,1.9c-0.26,0.72-0.39,1.48-0.39,2.27s0.13,1.55,0.39,2.27c0.26,0.72,0.63,1.35,1.12,1.89
	c0.49,0.54,1.08,0.97,1.78,1.29c0.7,0.32,1.49,0.48,2.36,0.48s1.66-0.16,2.36-0.48c0.7-0.32,1.3-0.75,1.78-1.29
	c0.49-0.54,0.86-1.17,1.12-1.89C507.24,204.98,507.36,204.22,507.36,203.43z"/>
<path class="st0" d="M529.06,208.22h0.04v-11.63h1.39v13.65h-1.74l-7.94-11.74h-0.04v11.74h-1.39v-13.65h1.74L529.06,208.22z"/>
<path class="st0" d="M553.26,208.02c-0.23,0.35-0.51,0.68-0.84,0.98c-0.33,0.31-0.71,0.58-1.14,0.82c-0.43,0.23-0.91,0.42-1.43,0.56
	c-0.52,0.14-1.09,0.21-1.71,0.21c-1.03,0-1.98-0.18-2.85-0.54c-0.87-0.36-1.63-0.86-2.26-1.49c-0.63-0.64-1.12-1.39-1.47-2.27
	c-0.35-0.87-0.53-1.83-0.53-2.87s0.18-2,0.54-2.87c0.36-0.87,0.86-1.63,1.49-2.27c0.64-0.64,1.39-1.13,2.26-1.49
	c0.87-0.36,1.81-0.54,2.83-0.54c0.5,0,0.99,0.05,1.47,0.16c0.48,0.1,0.94,0.25,1.36,0.44s0.81,0.42,1.16,0.68
	c0.35,0.27,0.64,0.57,0.87,0.9l-1.16,0.85c-0.14-0.22-0.33-0.44-0.57-0.66s-0.52-0.41-0.84-0.58c-0.32-0.17-0.67-0.3-1.05-0.4
	c-0.38-0.1-0.79-0.15-1.22-0.15c-0.89,0-1.68,0.16-2.38,0.48c-0.7,0.32-1.29,0.75-1.78,1.3s-0.86,1.18-1.12,1.89
	c-0.26,0.72-0.39,1.47-0.39,2.27c0,0.79,0.13,1.55,0.4,2.27s0.64,1.35,1.13,1.89c0.49,0.55,1.08,0.98,1.78,1.3
	c0.7,0.32,1.49,0.48,2.36,0.48c0.78,0,1.53-0.16,2.24-0.48c0.71-0.32,1.3-0.84,1.77-1.54L553.26,208.02z"/>
<path class="st0" d="M564.69,209.01H572v1.23h-8.7v-13.65h8.46v1.23h-7.08v4.69h6.61v1.23h-6.61V209.01z"/>
</svg>
