<?xml version="1.0" encoding="utf-8"?>
<!-- Generator: Adobe Illustrator 23.0.1, SVG Export Plug-In . SVG Version: 6.00 Build 0)  -->
<svg version="1.1" id="Layer_1" xmlns="http://www.w3.org/2000/svg" xmlns:xlink="http://www.w3.org/1999/xlink" x="0px" y="0px"
	 viewBox="0 0 24 24" style="enable-background:new 0 0 24 24;" xml:space="preserve">
<style type="text/css">
	.st0{opacity:0.25;fill:#FFFFFF;}
</style>
<path class="st0" d="M11.9,9.5h2v-3h3v-2h-3v-3h-2v3h-3v2h3V9.5z M7.9,18.5c-1.1,0-2,0.9-2,2s0.9,2,2,2s2-0.9,2-2S9,18.5,7.9,18.5z
	 M17.9,18.5c-1.1,0-2,0.9-2,2s0.9,2,2,2c1.1,0,2-0.9,2-2S19,18.5,17.9,18.5z M8.1,15.2l0-0.1L9,13.5h7.5c0.7,0,1.4-0.4,1.7-1l3.9-7
	l-1.7-1h0l-1.1,2l-2.8,5h-7l-0.1-0.3L7.1,6.5l-0.9-2l-0.9-2H1.9v2h2l3.6,7.6l-1.3,2.4c-0.2,0.3-0.2,0.6-0.2,1c0,1.1,0.9,2,2,2h12v-2
	H8.3C8.2,15.5,8.1,15.4,8.1,15.2z"/>
</svg>
