<?xml version="1.0" encoding="utf-8"?>
<!-- Generator: Adobe Illustrator 23.0.1, SVG Export Plug-In . SVG Version: 6.00 Build 0)  -->
<svg version="1.1" id="Layer_1" xmlns="http://www.w3.org/2000/svg" xmlns:xlink="http://www.w3.org/1999/xlink" x="0px" y="0px"
	 viewBox="0 0 24 24" style="enable-background:new 0 0 24 24;" xml:space="preserve">
<style type="text/css">
	.st0{opacity:0.25;fill:#17B200;}
	.st1{opacity:0.1;fill:#FFFFFF;}
	.st2{opacity:0.25;}
	.st3{fill:#17B200;}
</style>
<path class="st0" d="M56.09-15c-5.52,0-10,4.48-10,10s4.48,10,10,10s10-4.48,10-10S61.61-15,56.09-15z M56.09-12c1.66,0,3,1.34,3,3
	s-1.34,3-3,3s-3-1.34-3-3S54.43-12,56.09-12z M56.09,2.2c-2.5,0-4.71-1.28-6-3.22c0.03-1.99,4-3.08,6-3.08c1.99,0,5.97,1.09,6,3.08
	C60.8,0.92,58.59,2.2,56.09,2.2z"/>
<g>
	<path class="st1" d="M-31.42,6.48c0-0.97,0-1.94,0-2.92c0-0.03,0-0.06,0-0.09c-0.01-0.09-0.08-0.11-0.15-0.07
		c-0.01,0.01-0.03,0.02-0.05,0.03c0-0.32,0-0.63,0-0.93c0-0.1-0.04-0.14-0.14-0.14c-0.27,0-0.55,0-0.82,0c-0.16,0-0.31,0-0.47,0
		c-0.06-0.26-0.22-0.41-0.47-0.48c-0.06,0-0.11,0-0.17,0c-0.24,0.06-0.41,0.2-0.47,0.45c-0.01,0.04-0.01,0.09-0.01,0.13
		c0,0.34,0,0.67,0,1.02c-0.08-0.08-0.14-0.18-0.25-0.08c0,1.05,0,2.09,0,3.14c1,0,2,0,2.99,0C-31.42,6.54-31.42,6.51-31.42,6.48z
		 M-33.04,2.56c0.41,0,0.81,0,1.22,0c0,0.19,0,0.38,0,0.58c-0.39-0.38-0.89-0.32-1.22,0.01C-33.04,2.94-33.04,2.75-33.04,2.56z
		 M-31.81,3.56c0.03,0.15-0.09,0.22-0.16,0.33c-0.13-0.15-0.25-0.3-0.37-0.44c-0.08-0.09-0.12-0.09-0.2,0
		c-0.12,0.14-0.24,0.29-0.36,0.43c-0.13-0.08-0.16-0.19-0.13-0.33c0.06-0.28,0.32-0.5,0.6-0.49C-32.13,3.06-31.88,3.27-31.81,3.56z
		 M-33.98,2.44c0-0.17,0.11-0.3,0.26-0.35c0.14-0.05,0.3,0,0.4,0.12c0.05,0.06,0.07,0.11-0.01,0.18c-0.1,0.08-0.18,0.18-0.27,0.27
		c-0.04,0.04-0.13,0.09-0.06,0.16c0.07,0.07,0.11-0.02,0.15-0.06c0.08-0.08,0.16-0.17,0.26-0.28c0.01,0.05,0.01,0.05,0.01,0.06
		c0.03,0.17-0.02,0.31-0.16,0.41c-0.08,0.06-0.15,0.15-0.23,0.23c-0.04,0.04-0.09,0.08-0.03,0.13c0.02,0.02,0.1-0.01,0.13-0.04
		c0.1-0.08,0.18-0.18,0.29-0.29c0,0.18,0,0.34,0,0.5c-0.01,0.01-0.01,0.01-0.02,0.02c-0.01-0.02-0.01-0.03-0.02-0.05
		c-0.09-0.1-0.13-0.1-0.22,0.01c-0.11,0.13-0.22,0.27-0.33,0.4c0,0.01-0.01,0.01-0.02,0.02c-0.08-0.07-0.13-0.14-0.13-0.26
		C-33.97,3.23-33.98,2.83-33.98,2.44z M-31.61,6.43c-0.86,0-1.73,0-2.61,0c0-0.9,0-1.79,0-2.7c0.1,0.11,0.18,0.21,0.26,0.31
		c0.09,0.1,0.13,0.1,0.21,0c0.12-0.14,0.24-0.29,0.36-0.43c0.13,0.15,0.25,0.3,0.37,0.44c0.07,0.08,0.12,0.08,0.19,0
		c0.12-0.15,0.24-0.29,0.37-0.44c0.12,0.15,0.24,0.29,0.36,0.43c0.08,0.1,0.13,0.1,0.21,0c0.09-0.1,0.17-0.2,0.27-0.32
		C-31.61,4.64-31.61,5.53-31.61,6.43z"/>
	<path class="st1" d="M-25.89,6.12c0-0.23-0.19-0.43-0.43-0.43s-0.42,0.19-0.42,0.43c0,0.23,0.19,0.43,0.42,0.43
		C-26.08,6.55-25.89,6.36-25.89,6.12z"/>
	<path class="st1" d="M-28.45,6.55c0.23,0,0.43-0.19,0.43-0.43c0-0.23-0.19-0.43-0.43-0.43c-0.23,0-0.42,0.19-0.42,0.43
		C-28.87,6.36-28.68,6.55-28.45,6.55z"/>
	<path class="st1" d="M-28.53,4.33l-0.29,0.52c-0.03,0.06-0.05,0.13-0.05,0.2c0,0.23,0.19,0.43,0.43,0.43h2.56V5.06h-2.47
		c-0.03,0-0.05-0.02-0.05-0.05l0.01-0.03l0.19-0.35h1.59c0.16,0,0.3-0.09,0.37-0.22l0.82-1.49l-0.37-0.2h0l-0.23,0.43l-0.59,1.07
		h-1.5l-0.03-0.06l-0.48-1.01l-0.2-0.43l-0.2-0.43h-0.7v0.43h0.43L-28.53,4.33z"/>
	<path class="st1" d="M-23.63,3.96c0,0.81,0,1.61,0,2.42c0,0.2,0.07,0.27,0.27,0.27c1.17,0,2.33,0,3.5,0c0.2,0,0.27-0.07,0.27-0.27
		c0-0.8,0-1.6,0-2.41c0-0.06,0.03-0.12,0.05-0.18c0.05-0.13,0.09-0.26,0.14-0.39c0-0.06,0-0.12,0-0.18
		c-0.07-0.24-0.14-0.48-0.21-0.72c-0.05-0.17-0.1-0.21-0.28-0.21c-1.15,0-2.29,0-3.44,0c-0.18,0-0.23,0.04-0.28,0.21
		c-0.07,0.24-0.14,0.48-0.21,0.72c0,0.06,0,0.12,0,0.18c0.06,0.15,0.13,0.3,0.18,0.46C-23.63,3.89-23.63,3.93-23.63,3.96z
		 M-20.79,2.72c0.26,0,0.5,0,0.74,0c0.02,0,0.05,0.03,0.06,0.05c0.05,0.17,0.12,0.34,0.14,0.52c0.01,0.1-0.04,0.22-0.09,0.31
		c-0.17,0.26-0.55,0.32-0.79,0.12c-0.03-0.02-0.06-0.06-0.06-0.08c0-0.27,0-0.54,0-0.81C-20.79,2.8-20.79,2.77-20.79,2.72z
		 M-21.99,2.73c0.25,0,0.5,0,0.77,0c0,0.08,0,0.16,0,0.24c0,0.21,0,0.42,0,0.63c0,0.07-0.02,0.11-0.08,0.14
		c-0.19,0.13-0.45,0.12-0.63-0.01C-21.97,3.71-22,3.66-22,3.63c0-0.29,0-0.58,0-0.87C-22,2.75-22,2.74-21.99,2.73z M-21,4.07
		c0.29,0.21,0.62,0.25,0.97,0.14c0,0.67,0,1.33,0,2c-0.1,0-0.2,0-0.31,0c0-0.03,0-0.07,0-0.1c0-0.31,0-0.63,0-0.94
		c0-0.19-0.06-0.25-0.25-0.25c-0.22,0-0.45,0-0.67,0c-0.16,0-0.23,0.07-0.23,0.23c0,0.32,0,0.64,0,0.95c0,0.04,0,0.07,0,0.11
		c-0.57,0-1.13,0-1.69,0c0-0.67,0-1.33,0-1.99c0.48,0.09,0.6,0.07,0.97-0.14C-21.82,4.34-21.41,4.34-21,4.07z M-23.38,3.27
		c0.04-0.16,0.09-0.33,0.14-0.49c0.01-0.03,0.05-0.06,0.08-0.06c0.24,0,0.47,0,0.72,0c0,0.27,0,0.53,0,0.79
		c0,0.18-0.03,0.23-0.21,0.29c-0.33,0.12-0.69-0.1-0.74-0.45C-23.39,3.33-23.39,3.3-23.38,3.27z"/>
	<path class="st1" d="M-12.43,3.81c-0.05,0-0.11-0.01-0.16,0c-0.28,0.06-0.41-0.08-0.51-0.33c-0.13-0.34-0.3-0.66-0.45-0.98
		c-0.05-0.1-0.11-0.15-0.22-0.15c-0.13,0-0.27,0-0.41,0c-0.01-0.14-0.09-0.15-0.2-0.15c-0.4,0-0.8,0-1.2,0c-0.1,0-0.2,0-0.18,0.15
		c-0.16,0-0.3,0-0.44,0c-0.11,0-0.18,0.04-0.22,0.15C-16.62,2.9-16.81,3.3-17,3.71c-0.04,0.08-0.08,0.11-0.16,0.1
		c-0.13-0.01-0.27,0-0.4,0c-0.13-0.01-0.22,0.04-0.28,0.15c0,0.03,0,0.07,0,0.1c0.27,0.67,0.54,1.33,0.81,2
		c0.03,0.08,0.07,0.16,0.1,0.25c0.07,0.17,0.1,0.19,0.28,0.19c0.7,0,1.4,0,2.1,0c0.4,0,0.81,0,1.21,0c0.15,0,0.23-0.06,0.28-0.19
		c0.28-0.72,0.57-1.43,0.86-2.15c0.01-0.03,0.03-0.06,0.04-0.09c0-0.03,0-0.07,0-0.1C-12.21,3.85-12.3,3.8-12.43,3.81z M-16.96,4.68
		c-0.13,0.05-0.21,0-0.25-0.13c-0.03-0.11-0.08-0.22-0.13-0.33c0.13,0,0.25,0,0.38,0C-16.96,4.38-16.96,4.53-16.96,4.68z
		 M-16.52,3.49c0.1-0.23,0.22-0.46,0.31-0.69c0.04-0.08,0.08-0.12,0.17-0.11c0.08,0.01,0.17,0,0.27,0
		c-0.01,0.14,0.07,0.16,0.18,0.16c0.4,0,0.81,0,1.21,0c0.11,0,0.18-0.02,0.18-0.15c0.02,0,0.03-0.01,0.04-0.01
		c0.31-0.01,0.31-0.01,0.45,0.28c0.11,0.24,0.22,0.47,0.32,0.71c0.02,0.04,0.03,0.07,0.05,0.12c-1.12,0-2.21,0-3.33,0
		C-16.61,3.69-16.57,3.59-16.52,3.49z M-13.28,4.22c0,0.15,0,0.31,0,0.47c-0.23,0-0.45,0-0.67,0c0-0.16,0-0.31,0-0.47
		C-13.73,4.22-13.51,4.22-13.28,4.22z M-14.2,4.22c0,0.15,0,0.3,0,0.46c-0.22,0-0.45,0-0.68,0c0-0.16,0-0.31,0-0.46
		C-14.65,4.22-14.43,4.22-14.2,4.22z M-16.16,6.1c-0.12,0-0.25,0-0.37,0c-0.03,0-0.06-0.03-0.07-0.05
		c-0.06-0.14-0.11-0.28-0.18-0.44c0.22,0,0.42,0,0.62,0C-16.16,5.77-16.16,5.93-16.16,6.1z M-16.16,5.37c-0.19,0-0.37,0-0.57,0
		c0-0.15,0-0.29,0-0.44c0.19,0,0.38,0,0.57,0C-16.16,5.08-16.16,5.22-16.16,5.37z M-16.15,4.69c-0.2,0-0.38,0-0.57,0
		c0-0.16,0-0.31,0-0.47c0.19,0,0.38,0,0.57,0C-16.15,4.38-16.15,4.53-16.15,4.69z M-15.91,4.22c0.26,0,0.52,0,0.79,0
		c0,0.15,0,0.3,0,0.47c-0.26,0-0.52,0-0.79,0C-15.91,4.53-15.91,4.38-15.91,4.22z M-15.12,4.93c0,0.14,0,0.29,0,0.45
		c-0.26,0-0.52,0-0.79,0c0-0.15,0-0.29,0-0.45C-15.65,4.93-15.39,4.93-15.12,4.93z M-15.11,6.09c-0.26,0-0.53,0-0.8,0
		c0-0.15,0-0.31,0-0.47c0.26,0,0.52,0,0.8,0C-15.11,5.78-15.11,5.93-15.11,6.09z M-14.88,4.93c0.22,0,0.44,0,0.68,0
		c0,0.14,0,0.29,0,0.44c-0.22,0-0.44,0-0.68,0C-14.88,5.22-14.88,5.08-14.88,4.93z M-14.19,6.04c0,0.02-0.04,0.05-0.06,0.05
		c-0.2,0-0.41,0-0.62,0c0-0.17,0-0.32,0-0.49c0.23,0,0.45,0,0.69,0C-14.19,5.76-14.19,5.9-14.19,6.04z M-13.96,4.93
		c0.23,0,0.44,0,0.67,0c0,0.14,0,0.29,0,0.44c-0.22,0-0.44,0-0.67,0C-13.96,5.22-13.96,5.08-13.96,4.93z M-13.4,6.07
		c-0.01,0.02-0.05,0.03-0.07,0.03c-0.16,0-0.31,0-0.48,0c0-0.16,0-0.32,0-0.49c0.22,0,0.44,0,0.67,0
		C-13.25,5.79-13.35,5.92-13.4,6.07z M-12.84,4.65c-0.02,0.04-0.12,0.04-0.21,0.07c0-0.18,0-0.34,0-0.5c0.13,0,0.25,0,0.39,0
		C-12.71,4.37-12.76,4.52-12.84,4.65z"/>
	<path class="st1" d="M-15.3,9.8c0,0.03,0,0.06,0,0.09c0,0.97,0,1.94,0,2.92c0,0.03,0,0.05,0,0.08c1,0,1.99,0,2.99,0
		c0-1.05,0-2.09,0-3.14c-0.11-0.11-0.17,0-0.25,0.08c0-0.35,0-0.69,0-1.02c0-0.04,0-0.09-0.01-0.13c-0.05-0.26-0.22-0.39-0.47-0.45
		c-0.06,0-0.11,0-0.17,0c-0.25,0.07-0.41,0.21-0.47,0.48c-0.16,0-0.31,0-0.47,0c-0.27,0-0.55,0-0.82,0c-0.1,0-0.14,0.04-0.14,0.14
		c0,0.31,0,0.62,0,0.93c-0.02-0.01-0.04-0.02-0.05-0.03C-15.22,9.69-15.28,9.72-15.3,9.8z M-13.48,8.81c0.1,0.11,0.18,0.2,0.26,0.28
		c0.04,0.04,0.08,0.12,0.15,0.06c0.07-0.07-0.02-0.11-0.06-0.16C-13.21,8.9-13.3,8.8-13.4,8.72c-0.08-0.07-0.06-0.12-0.01-0.18
		c0.1-0.12,0.26-0.17,0.4-0.12c0.16,0.05,0.26,0.18,0.26,0.35c0,0.39-0.01,0.79,0,1.18c0,0.12-0.06,0.19-0.13,0.26
		c-0.01-0.01-0.02-0.01-0.02-0.02c-0.11-0.13-0.22-0.27-0.33-0.4c-0.09-0.11-0.13-0.11-0.22-0.01c-0.01,0.01-0.01,0.03-0.02,0.05
		c-0.01-0.01-0.01-0.01-0.02-0.02c0-0.16,0-0.32,0-0.5c0.1,0.11,0.19,0.2,0.29,0.29c0.03,0.03,0.1,0.05,0.13,0.04
		c0.06-0.04,0.01-0.09-0.03-0.13c-0.08-0.08-0.14-0.16-0.23-0.23c-0.14-0.11-0.19-0.24-0.16-0.41C-13.49,8.86-13.49,8.85-13.48,8.81
		z M-14.9,8.89c0.41,0,0.81,0,1.22,0c0,0.2,0,0.39,0,0.59c-0.34-0.33-0.83-0.38-1.22-0.01C-14.9,9.27-14.9,9.08-14.9,8.89z
		 M-14.29,9.39c0.28,0,0.54,0.21,0.6,0.49c0.03,0.14,0,0.25-0.13,0.33c-0.12-0.15-0.24-0.29-0.36-0.43c-0.08-0.09-0.12-0.09-0.2,0
		c-0.12,0.14-0.24,0.29-0.37,0.44c-0.07-0.11-0.2-0.17-0.16-0.33C-14.84,9.6-14.59,9.39-14.29,9.39z M-15.11,10.06
		c0.1,0.12,0.18,0.22,0.27,0.32c0.08,0.09,0.12,0.09,0.21,0c0.12-0.14,0.24-0.28,0.36-0.43c0.13,0.15,0.25,0.3,0.37,0.44
		c0.07,0.08,0.12,0.08,0.19,0c0.12-0.15,0.24-0.29,0.37-0.44c0.12,0.15,0.24,0.29,0.36,0.43c0.08,0.1,0.13,0.1,0.21,0
		c0.08-0.1,0.17-0.2,0.26-0.31c0,0.91,0,1.8,0,2.7c-0.88,0-1.74,0-2.61,0C-15.11,11.86-15.11,10.97-15.11,10.06z"/>
	<path class="st1" d="M-20.68,9.47l-0.23-0.43h0l-0.37,0.2l0.82,1.49c0.07,0.13,0.21,0.22,0.37,0.22h1.59l0.19,0.35l0.01,0.03
		c0,0.03-0.03,0.05-0.05,0.05h-2.47v0.43h2.56c0.23,0,0.43-0.19,0.43-0.43c0-0.07-0.02-0.14-0.05-0.2l-0.29-0.52l0.77-1.62h0.43
		V8.62h-0.7l-0.2,0.43l-0.2,0.43l-0.48,1.01l-0.03,0.06h-1.5L-20.68,9.47z"/>
	<path class="st1" d="M-18.27,12.03c-0.23,0-0.43,0.19-0.43,0.43c0,0.23,0.19,0.43,0.43,0.43c0.23,0,0.42-0.19,0.42-0.43
		C-17.85,12.22-18.04,12.03-18.27,12.03z"/>
	<path class="st1" d="M-19.98,12.45c0-0.23-0.19-0.43-0.42-0.43c-0.23,0-0.43,0.19-0.43,0.43c0,0.23,0.19,0.43,0.43,0.43
		C-20.17,12.88-19.98,12.69-19.98,12.45z"/>
	<path class="st1" d="M-23.08,12.71c0-0.81,0-1.61,0-2.42c0-0.04,0-0.07,0.01-0.11c0.06-0.15,0.12-0.31,0.18-0.46
		c0-0.06,0-0.12,0-0.18c-0.07-0.24-0.14-0.48-0.21-0.72c-0.05-0.17-0.1-0.21-0.28-0.21c-1.15,0-2.29,0-3.44,0
		c-0.18,0-0.23,0.04-0.28,0.21c-0.07,0.24-0.14,0.48-0.21,0.72c0,0.06,0,0.12,0,0.18c0.05,0.13,0.1,0.26,0.14,0.39
		c0.02,0.06,0.05,0.12,0.05,0.18c0,0.8,0,1.6,0,2.41c0,0.2,0.07,0.27,0.27,0.27c1.17,0,2.33,0,3.5,0
		C-23.15,12.98-23.08,12.91-23.08,12.71z M-25.49,9.3c0-0.08,0-0.16,0-0.24c0.26,0,0.51,0,0.77,0c0,0.01,0.01,0.02,0.01,0.03
		c0,0.29,0,0.58,0,0.87c0,0.03-0.03,0.08-0.06,0.1c-0.18,0.14-0.44,0.14-0.63,0.01c-0.05-0.04-0.08-0.08-0.08-0.14
		C-25.49,9.72-25.49,9.51-25.49,9.3z M-26.86,9.62c0.02-0.18,0.09-0.35,0.14-0.52c0.01-0.02,0.04-0.05,0.06-0.05
		c0.24,0,0.48,0,0.74,0c0,0.05,0,0.08,0,0.11c0,0.27,0,0.54,0,0.81c0,0.03-0.03,0.06-0.06,0.08c-0.24,0.19-0.62,0.14-0.79-0.12
		C-26.83,9.84-26.88,9.72-26.86,9.62z M-23.53,12.54c-0.56,0-1.12,0-1.69,0c0-0.04,0-0.08,0-0.11c0-0.32,0-0.64,0-0.95
		c0-0.16-0.07-0.23-0.23-0.23c-0.22,0-0.45,0-0.67,0c-0.19,0-0.25,0.06-0.25,0.25c0,0.31,0,0.63,0,0.94c0,0.03,0,0.07,0,0.1
		c-0.11,0-0.21,0-0.31,0c0-0.67,0-1.33,0-2c0.35,0.11,0.67,0.07,0.97-0.14c0.41,0.27,0.81,0.27,1.22,0
		c0.37,0.22,0.49,0.24,0.97,0.14C-23.53,11.21-23.53,11.87-23.53,12.54z M-24.07,10.13c-0.17-0.06-0.21-0.11-0.21-0.29
		c0-0.26,0-0.52,0-0.79c0.25,0,0.49,0,0.72,0c0.03,0,0.07,0.03,0.08,0.06c0.05,0.16,0.09,0.33,0.14,0.49
		c0.01,0.02,0.01,0.05,0.01,0.08C-23.38,10.03-23.74,10.25-24.07,10.13z"/>
	<path class="st1" d="M-33.66,12.63c0.05,0.14,0.14,0.2,0.28,0.19c0.4-0.01,0.81,0,1.21,0c0.7,0,1.4,0,2.1,0
		c0.18,0,0.21-0.03,0.28-0.19c0.03-0.08,0.07-0.16,0.1-0.25c0.27-0.67,0.54-1.33,0.81-2c0-0.03,0-0.07,0-0.1
		c-0.06-0.11-0.15-0.16-0.28-0.15c-0.13,0.01-0.27,0-0.4,0c-0.08,0-0.12-0.02-0.16-0.1c-0.18-0.41-0.38-0.81-0.56-1.21
		c-0.05-0.1-0.11-0.15-0.22-0.15c-0.14,0-0.28,0-0.44,0c0.02-0.15-0.08-0.15-0.18-0.15c-0.4,0-0.8,0-1.2,0
		c-0.11,0-0.19,0.01-0.2,0.15c-0.14,0-0.28,0-0.41,0c-0.11,0-0.18,0.04-0.22,0.15c-0.15,0.33-0.32,0.65-0.45,0.98
		c-0.1,0.25-0.23,0.39-0.51,0.33c-0.05-0.01-0.11,0-0.16,0c-0.13-0.01-0.22,0.04-0.28,0.15c0,0.03,0,0.07,0,0.1
		c0.01,0.03,0.03,0.06,0.04,0.09C-34.23,11.2-33.94,11.91-33.66,12.63z M-29.75,10.55c0.13,0,0.24,0,0.38,0
		c-0.05,0.12-0.1,0.22-0.13,0.33c-0.04,0.13-0.11,0.18-0.25,0.13C-29.75,10.86-29.75,10.71-29.75,10.55z M-32.76,11.7
		c-0.23,0-0.45,0-0.67,0c0-0.16,0-0.3,0-0.44c0.23,0,0.45,0,0.67,0C-32.76,11.41-32.76,11.55-32.76,11.7z M-31.84,12.43
		c-0.21,0-0.41,0-0.62,0c-0.02,0-0.06-0.03-0.06-0.05c-0.01-0.14,0-0.28,0-0.43c0.23,0,0.45,0,0.69,0
		C-31.84,12.11-31.84,12.26-31.84,12.43z M-31.84,11.7c-0.24,0-0.46,0-0.68,0c0-0.16,0-0.3,0-0.44c0.23,0,0.45,0,0.68,0
		C-31.84,11.41-31.84,11.55-31.84,11.7z M-32.52,11.02c0-0.16,0-0.31,0-0.46c0.23,0,0.45,0,0.68,0c0,0.16,0,0.31,0,0.46
		C-32.07,11.02-32.3,11.02-32.52,11.02z M-30.81,12.42c-0.27,0-0.53,0-0.8,0c0-0.16,0-0.31,0-0.47c0.28,0,0.54,0,0.8,0
		C-30.81,12.11-30.81,12.27-30.81,12.42z M-30.81,11.71c-0.27,0-0.53,0-0.79,0c0-0.15,0-0.3,0-0.45c0.27,0,0.53,0,0.79,0
		C-30.81,11.41-30.81,11.56-30.81,11.71z M-30.81,11.02c-0.27,0-0.53,0-0.79,0c0-0.17,0-0.32,0-0.47c0.27,0,0.53,0,0.79,0
		C-30.81,10.71-30.81,10.86-30.81,11.02z M-30.12,12.37c-0.01,0.02-0.05,0.05-0.07,0.05c-0.12,0.01-0.25,0-0.37,0
		c0-0.17,0-0.33,0-0.49c0.21,0,0.4,0,0.62,0C-30,12.1-30.06,12.24-30.12,12.37z M-29.99,11.7c-0.2,0-0.39,0-0.57,0
		c0-0.15,0-0.3,0-0.44c0.2,0,0.38,0,0.57,0C-29.99,11.41-29.99,11.55-29.99,11.7z M-29.99,11.02c-0.19,0-0.38,0-0.57,0
		c0-0.16,0-0.32,0-0.47c0.19,0,0.38,0,0.57,0C-29.99,10.71-29.99,10.86-29.99,11.02z M-33.33,10.01c0.11-0.24,0.22-0.47,0.32-0.71
		c0.13-0.29,0.13-0.29,0.45-0.28c0.01,0,0.02,0,0.04,0.01c0,0.12,0.07,0.15,0.18,0.15c0.4,0,0.81,0,1.21,0
		c0.11,0,0.2-0.01,0.18-0.16c0.1,0,0.18,0.01,0.27,0c0.09-0.01,0.13,0.03,0.17,0.11c0.1,0.23,0.21,0.46,0.31,0.69
		c0.05,0.1,0.09,0.2,0.14,0.32c-1.12,0-2.21,0-3.33,0C-33.37,10.09-33.35,10.05-33.33,10.01z M-33.43,10.55c0.23,0,0.45,0,0.67,0
		c0,0.16,0,0.31,0,0.47c-0.23,0-0.45,0-0.67,0C-33.43,10.85-33.43,10.7-33.43,10.55z M-32.76,11.94c0,0.17,0,0.32,0,0.49
		c-0.17,0-0.32,0-0.48,0c-0.03,0-0.07-0.01-0.07-0.03c-0.05-0.14-0.16-0.27-0.12-0.45C-33.21,11.94-32.99,11.94-32.76,11.94z
		 M-33.68,10.55c0,0.16,0,0.31,0,0.5c-0.08-0.02-0.18-0.02-0.21-0.07c-0.08-0.13-0.12-0.28-0.18-0.43
		C-33.93,10.55-33.81,10.55-33.68,10.55z"/>
	<path class="st1" d="M-31.91,14.87c-0.27,0-0.55,0-0.82,0c-0.16,0-0.31,0-0.47,0c-0.06-0.26-0.22-0.41-0.47-0.48
		c-0.06,0-0.11,0-0.17,0c-0.24,0.06-0.41,0.2-0.47,0.45c-0.01,0.04-0.01,0.09-0.01,0.13c0,0.34,0,0.67,0,1.02
		c-0.08-0.08-0.14-0.18-0.25-0.08c0,1.05,0,2.09,0,3.14c1,0,2,0,2.99,0c0-0.03,0-0.05,0-0.08c0-0.97,0-1.94,0-2.92
		c0-0.03,0-0.06,0-0.09c-0.01-0.09-0.08-0.11-0.15-0.07c-0.01,0.01-0.03,0.02-0.05,0.03c0-0.32,0-0.63,0-0.93
		C-31.77,14.91-31.81,14.87-31.91,14.87z M-33.19,15.06c0.41,0,0.81,0,1.22,0c0,0.19,0,0.38,0,0.58c-0.39-0.38-0.89-0.32-1.22,0.01
		C-33.19,15.45-33.19,15.26-33.19,15.06z M-31.97,16.06c0.03,0.15-0.09,0.22-0.16,0.33c-0.13-0.15-0.25-0.3-0.37-0.44
		c-0.08-0.09-0.12-0.09-0.2,0c-0.12,0.14-0.24,0.29-0.36,0.43c-0.13-0.08-0.16-0.19-0.13-0.33c0.06-0.28,0.32-0.5,0.6-0.49
		C-32.28,15.56-32.03,15.78-31.97,16.06z M-34.13,14.94c0-0.17,0.11-0.3,0.26-0.35c0.14-0.05,0.3,0,0.4,0.12
		c0.05,0.06,0.07,0.11-0.01,0.18c-0.1,0.08-0.18,0.18-0.27,0.27c-0.04,0.04-0.13,0.09-0.06,0.16c0.07,0.07,0.11-0.02,0.15-0.06
		c0.08-0.08,0.16-0.17,0.26-0.28c0.01,0.05,0.01,0.05,0.01,0.06c0.03,0.17-0.02,0.31-0.16,0.41c-0.08,0.06-0.15,0.15-0.23,0.23
		c-0.04,0.04-0.09,0.08-0.03,0.13c0.02,0.02,0.1-0.01,0.13-0.04c0.1-0.08,0.18-0.18,0.29-0.29c0,0.18,0,0.34,0,0.5
		C-33.39,15.99-33.4,16-33.4,16c-0.01-0.02-0.01-0.03-0.02-0.05c-0.09-0.1-0.13-0.1-0.22,0.01c-0.11,0.13-0.22,0.27-0.33,0.4
		c0,0.01-0.01,0.01-0.02,0.02c-0.08-0.07-0.13-0.14-0.13-0.26C-34.12,15.73-34.13,15.34-34.13,14.94z M-31.76,16.24
		c0,0.91,0,1.8,0,2.7c-0.86,0-1.73,0-2.61,0c0-0.9,0-1.79,0-2.7c0.1,0.11,0.18,0.21,0.26,0.31c0.09,0.1,0.13,0.1,0.21,0
		c0.12-0.14,0.24-0.29,0.36-0.43c0.13,0.15,0.25,0.3,0.37,0.44c0.07,0.08,0.12,0.08,0.19,0c0.12-0.15,0.24-0.29,0.37-0.44
		c0.12,0.15,0.24,0.29,0.36,0.43c0.08,0.1,0.13,0.1,0.21,0C-31.94,16.45-31.86,16.35-31.76,16.24z"/>
	<path class="st1" d="M-26.89,18.63c0,0.23,0.19,0.43,0.42,0.43c0.23,0,0.43-0.19,0.43-0.43c0-0.23-0.19-0.43-0.43-0.43
		C-26.7,18.2-26.89,18.39-26.89,18.63z"/>
	<path class="st1" d="M-28.36,17.13l1.59,0c0.16,0,0.3-0.09,0.37-0.22l0.82-1.49l-0.37-0.2h0l-0.23,0.43l-0.59,1.07l-1.5,0
		l-0.03-0.06l-0.48-1.01l-0.2-0.43l-0.2-0.43l-0.7,0l0,0.43l0.43,0l0.77,1.62l-0.29,0.52c-0.03,0.06-0.05,0.13-0.05,0.2
		c0,0.23,0.19,0.43,0.43,0.43l2.56,0l0-0.43l-2.47,0c-0.03,0-0.05-0.02-0.05-0.05l0.01-0.03L-28.36,17.13z"/>
	<path class="st1" d="M-28.6,18.2c-0.23,0-0.42,0.19-0.42,0.43c0,0.23,0.19,0.43,0.42,0.43s0.43-0.19,0.43-0.43
		S-28.36,18.2-28.6,18.2z"/>
	<path class="st1" d="M-23.51,19.15c1.17,0,2.33,0,3.5,0c0.2,0,0.27-0.07,0.27-0.27c0-0.8,0-1.6,0-2.41c0-0.06,0.03-0.12,0.05-0.18
		c0.05-0.13,0.09-0.26,0.14-0.39c0-0.06,0-0.12,0-0.18c-0.07-0.24-0.14-0.48-0.21-0.72c-0.05-0.17-0.1-0.21-0.28-0.21
		c-1.15,0-2.29,0-3.44,0c-0.18,0-0.23,0.04-0.28,0.21c-0.07,0.24-0.14,0.48-0.21,0.72c0,0.06,0,0.12,0,0.18
		c0.06,0.15,0.12,0.31,0.18,0.46c0.01,0.03,0.01,0.07,0.01,0.11c0,0.81,0,1.61,0,2.42C-23.78,19.08-23.72,19.15-23.51,19.15z
		 M-20.94,15.23c0.26,0,0.5,0,0.74,0c0.02,0,0.05,0.03,0.06,0.05c0.05,0.17,0.12,0.34,0.14,0.52c0.01,0.1-0.04,0.22-0.09,0.31
		c-0.17,0.26-0.55,0.32-0.79,0.12c-0.03-0.02-0.06-0.06-0.06-0.08c0-0.27,0-0.54,0-0.81C-20.94,15.31-20.94,15.27-20.94,15.23z
		 M-22.14,15.23c0.25,0,0.5,0,0.77,0c0,0.08,0,0.16,0,0.24c0,0.21,0,0.42,0,0.63c0,0.07-0.02,0.11-0.08,0.14
		c-0.19,0.13-0.45,0.12-0.63-0.01c-0.03-0.02-0.06-0.07-0.06-0.1c0-0.29,0-0.58,0-0.87C-22.15,15.25-22.15,15.24-22.14,15.23z
		 M-21.15,16.57c0.29,0.21,0.62,0.25,0.97,0.14c0,0.67,0,1.33,0,2c-0.1,0-0.2,0-0.31,0c0-0.03,0-0.07,0-0.1c0-0.31,0-0.63,0-0.94
		c0-0.19-0.06-0.25-0.25-0.25c-0.22,0-0.45,0-0.67,0c-0.16,0-0.23,0.07-0.23,0.23c0,0.32,0,0.64,0,0.95c0,0.04,0,0.07,0,0.11
		c-0.57,0-1.13,0-1.69,0c0-0.67,0-1.33,0-1.99c0.48,0.09,0.6,0.07,0.97-0.14C-21.97,16.84-21.56,16.84-21.15,16.57z M-23.53,15.78
		c0.04-0.16,0.09-0.33,0.14-0.49c0.01-0.03,0.05-0.06,0.08-0.06c0.24,0,0.47,0,0.72,0c0,0.27,0,0.53,0,0.79
		c0,0.18-0.03,0.23-0.21,0.29c-0.33,0.12-0.69-0.1-0.74-0.45C-23.54,15.83-23.54,15.8-23.53,15.78z"/>
	<path class="st1" d="M-12.58,16.31c-0.05,0-0.11-0.01-0.16,0c-0.28,0.06-0.41-0.08-0.51-0.33c-0.13-0.34-0.3-0.66-0.45-0.98
		c-0.05-0.1-0.11-0.15-0.22-0.15c-0.13,0-0.27,0-0.41,0c-0.01-0.14-0.09-0.15-0.2-0.15c-0.4,0-0.8,0-1.2,0c-0.1,0-0.2,0-0.18,0.15
		c-0.16,0-0.3,0-0.44,0c-0.11,0-0.18,0.04-0.22,0.15c-0.18,0.4-0.38,0.81-0.56,1.21c-0.04,0.08-0.08,0.11-0.16,0.1
		c-0.13-0.01-0.27,0-0.4,0c-0.13-0.01-0.22,0.04-0.28,0.15c0,0.03,0,0.07,0,0.1c0.27,0.67,0.54,1.33,0.81,2
		c0.03,0.08,0.07,0.16,0.1,0.25c0.07,0.17,0.1,0.19,0.28,0.19c0.7,0,1.4,0,2.1,0c0.4,0,0.81,0,1.21,0c0.15,0,0.23-0.06,0.28-0.19
		c0.28-0.72,0.58-1.43,0.86-2.15c0.01-0.03,0.03-0.06,0.04-0.09c0-0.03,0-0.07,0-0.1C-12.36,16.35-12.45,16.3-12.58,16.31z
		 M-17.11,17.19c-0.13,0.05-0.21,0-0.25-0.13c-0.03-0.11-0.08-0.22-0.13-0.33c0.13,0,0.25,0,0.38,0
		C-17.11,16.88-17.11,17.04-17.11,17.19z M-16.67,15.99c0.1-0.23,0.22-0.46,0.31-0.69c0.04-0.08,0.08-0.12,0.17-0.11
		c0.08,0.01,0.17,0,0.27,0c-0.01,0.14,0.07,0.16,0.18,0.16c0.4,0,0.81,0,1.21,0c0.11,0,0.18-0.02,0.18-0.15
		c0.02,0,0.03-0.01,0.04-0.01c0.31-0.01,0.31-0.01,0.45,0.28c0.11,0.24,0.22,0.47,0.32,0.71c0.02,0.04,0.03,0.07,0.05,0.12
		c-1.12,0-2.21,0-3.33,0C-16.76,16.2-16.72,16.1-16.67,15.99z M-13.43,16.72c0,0.15,0,0.31,0,0.47c-0.23,0-0.45,0-0.67,0
		c0-0.16,0-0.31,0-0.47C-13.88,16.72-13.66,16.72-13.43,16.72z M-14.35,16.73c0,0.15,0,0.3,0,0.46c-0.22,0-0.45,0-0.68,0
		c0-0.16,0-0.31,0-0.46C-14.8,16.73-14.58,16.73-14.35,16.73z M-16.31,18.61c-0.12,0-0.25,0-0.37,0c-0.03,0-0.06-0.03-0.07-0.05
		c-0.06-0.14-0.11-0.28-0.18-0.44c0.22,0,0.42,0,0.62,0C-16.31,18.28-16.31,18.43-16.31,18.61z M-16.31,17.88c-0.19,0-0.37,0-0.57,0
		c0-0.15,0-0.29,0-0.44c0.19,0,0.38,0,0.57,0C-16.31,17.58-16.31,17.72-16.31,17.88z M-16.3,17.2c-0.2,0-0.38,0-0.57,0
		c0-0.16,0-0.31,0-0.47c0.19,0,0.38,0,0.57,0C-16.3,16.88-16.3,17.03-16.3,17.2z M-16.06,16.73c0.26,0,0.52,0,0.79,0
		c0,0.15,0,0.3,0,0.47c-0.26,0-0.52,0-0.79,0C-16.06,17.04-16.06,16.89-16.06,16.73z M-15.27,17.44c0,0.14,0,0.29,0,0.45
		c-0.26,0-0.52,0-0.79,0c0-0.15,0-0.29,0-0.45C-15.8,17.44-15.54,17.44-15.27,17.44z M-15.27,18.6c-0.26,0-0.53,0-0.8,0
		c0-0.15,0-0.31,0-0.47c0.26,0,0.52,0,0.8,0C-15.27,18.28-15.27,18.43-15.27,18.6z M-15.03,17.44c0.22,0,0.44,0,0.68,0
		c0,0.14,0,0.29,0,0.44c-0.22,0-0.44,0-0.68,0C-15.03,17.73-15.03,17.59-15.03,17.44z M-14.35,18.55c0,0.02-0.04,0.05-0.06,0.05
		c-0.2,0-0.41,0-0.62,0c0-0.17,0-0.32,0-0.49c0.23,0,0.45,0,0.69,0C-14.34,18.27-14.34,18.41-14.35,18.55z M-14.11,17.43
		c0.23,0,0.44,0,0.67,0c0,0.14,0,0.29,0,0.44c-0.22,0-0.44,0-0.67,0C-14.11,17.73-14.11,17.58-14.11,17.43z M-13.55,18.57
		c-0.01,0.02-0.05,0.03-0.07,0.03c-0.16,0-0.31,0-0.48,0c0-0.16,0-0.32,0-0.49c0.22,0,0.44,0,0.67,0
		C-13.4,18.3-13.5,18.43-13.55,18.57z M-12.99,17.16c-0.02,0.04-0.12,0.04-0.21,0.07c0-0.18,0-0.34,0-0.5c0.13,0,0.25,0,0.39,0
		C-12.86,16.88-12.91,17.03-12.99,17.16z"/>
	<path class="st1" d="M-12.56,22.03c0-0.35,0-0.69,0-1.02c0-0.04,0-0.09-0.01-0.13c-0.05-0.26-0.22-0.39-0.47-0.45
		c-0.06,0-0.11,0-0.17,0c-0.25,0.07-0.41,0.21-0.47,0.48c-0.16,0-0.31,0-0.47,0c-0.27,0-0.55,0-0.82,0c-0.1,0-0.14,0.04-0.14,0.14
		c0,0.31,0,0.62,0,0.93c-0.02-0.01-0.04-0.02-0.05-0.03c-0.07-0.04-0.14-0.01-0.15,0.07c0,0.03,0,0.06,0,0.09c0,0.97,0,1.94,0,2.92
		c0,0.03,0,0.05,0,0.08c1,0,1.99,0,2.99,0c0-1.05,0-2.09,0-3.14C-12.42,21.85-12.49,21.95-12.56,22.03z M-13.49,21
		c0.1,0.11,0.18,0.2,0.26,0.28c0.04,0.04,0.08,0.12,0.15,0.06c0.07-0.07-0.02-0.11-0.06-0.16c-0.09-0.09-0.17-0.19-0.27-0.27
		c-0.08-0.07-0.06-0.12-0.01-0.18c0.1-0.12,0.26-0.17,0.4-0.12c0.16,0.05,0.26,0.18,0.26,0.35c0,0.39-0.01,0.79,0,1.18
		c0,0.12-0.06,0.19-0.13,0.26c-0.01-0.01-0.02-0.01-0.02-0.02c-0.11-0.13-0.22-0.27-0.33-0.4c-0.09-0.11-0.13-0.11-0.22-0.01
		c-0.01,0.01-0.01,0.03-0.02,0.05c-0.01-0.01-0.01-0.01-0.02-0.02c0-0.16,0-0.32,0-0.5c0.1,0.11,0.19,0.2,0.29,0.29
		c0.03,0.03,0.1,0.05,0.13,0.04c0.06-0.04,0.01-0.09-0.03-0.13c-0.08-0.08-0.14-0.16-0.23-0.23c-0.14-0.11-0.19-0.24-0.16-0.41
		C-13.5,21.06-13.5,21.05-13.49,21z M-14.91,21.08c0.41,0,0.81,0,1.22,0c0,0.2,0,0.39,0,0.59c-0.34-0.33-0.83-0.38-1.22-0.01
		C-14.91,21.47-14.91,21.27-14.91,21.08z M-14.29,21.58c0.28,0,0.54,0.21,0.6,0.49c0.03,0.14,0,0.25-0.13,0.33
		c-0.12-0.15-0.24-0.29-0.36-0.43c-0.08-0.09-0.12-0.09-0.2,0c-0.12,0.14-0.24,0.29-0.37,0.44c-0.07-0.11-0.2-0.17-0.16-0.33
		C-14.85,21.8-14.59,21.58-14.29,21.58z M-12.51,24.96c-0.88,0-1.74,0-2.61,0c0-0.9,0-1.79,0-2.7c0.1,0.12,0.18,0.22,0.27,0.32
		c0.08,0.09,0.12,0.09,0.21,0c0.12-0.14,0.24-0.28,0.36-0.43c0.13,0.15,0.25,0.3,0.37,0.44c0.07,0.08,0.12,0.08,0.19,0
		c0.12-0.15,0.24-0.29,0.37-0.44c0.12,0.15,0.24,0.29,0.36,0.43c0.08,0.1,0.13,0.1,0.21,0c0.08-0.1,0.17-0.2,0.26-0.31
		C-12.51,23.17-12.51,24.06-12.51,24.96z"/>
	<path class="st1" d="M-20.41,24.22c-0.23,0-0.43,0.19-0.43,0.43c0,0.23,0.19,0.43,0.43,0.43c0.23,0,0.42-0.19,0.42-0.43
		C-19.98,24.41-20.17,24.22-20.41,24.22z"/>
	<path class="st1" d="M-18.28,24.22c-0.23,0-0.43,0.19-0.43,0.43c0,0.23,0.19,0.43,0.43,0.43c0.23,0,0.42-0.19,0.42-0.43
		C-17.85,24.41-18.04,24.22-18.28,24.22z"/>
	<path class="st1" d="M-17.89,21.24l-0.2,0.43l-0.48,1.01l-0.03,0.06h-1.5l-0.59-1.07l-0.23-0.43h0l-0.37,0.2l0.82,1.49
		c0.07,0.13,0.21,0.22,0.37,0.22h1.59l0.19,0.35l0.01,0.03c0,0.03-0.03,0.05-0.05,0.05h-2.47v0.43h2.56c0.23,0,0.43-0.19,0.43-0.43
		c0-0.07-0.02-0.14-0.05-0.2l-0.29-0.52l0.77-1.62H-17v-0.43h-0.7L-17.89,21.24z"/>
	<path class="st1" d="M-23.39,20.81c-1.15,0-2.29,0-3.44,0c-0.18,0-0.23,0.04-0.28,0.21c-0.07,0.24-0.14,0.48-0.21,0.72
		c0,0.06,0,0.12,0,0.18c0.05,0.13,0.1,0.26,0.14,0.39c0.02,0.06,0.05,0.12,0.05,0.18c0,0.8,0,1.6,0,2.41c0,0.2,0.07,0.27,0.27,0.27
		c1.17,0,2.33,0,3.5,0c0.2,0,0.27-0.07,0.27-0.27c0-0.81,0-1.61,0-2.42c0-0.04,0-0.07,0.01-0.11c0.06-0.15,0.12-0.31,0.18-0.46
		c0-0.06,0-0.12,0-0.18c-0.07-0.24-0.14-0.48-0.21-0.72C-23.16,20.85-23.21,20.81-23.39,20.81z M-25.5,21.49c0-0.08,0-0.16,0-0.24
		c0.26,0,0.51,0,0.77,0c0,0.01,0.01,0.02,0.01,0.03c0,0.29,0,0.58,0,0.87c0,0.03-0.03,0.08-0.06,0.1c-0.18,0.14-0.44,0.14-0.63,0.01
		c-0.05-0.04-0.08-0.08-0.08-0.14C-25.49,21.91-25.5,21.7-25.5,21.49z M-26.87,21.81c0.02-0.18,0.09-0.35,0.14-0.52
		c0.01-0.02,0.04-0.05,0.06-0.05c0.24,0,0.48,0,0.74,0c0,0.05,0,0.08,0,0.11c0,0.27,0,0.54,0,0.81c0,0.03-0.03,0.06-0.06,0.08
		c-0.24,0.19-0.62,0.14-0.79-0.12C-26.83,22.03-26.88,21.91-26.87,21.81z M-23.53,24.73c-0.56,0-1.12,0-1.69,0c0-0.04,0-0.08,0-0.11
		c0-0.32,0-0.64,0-0.95c0-0.16-0.07-0.23-0.23-0.23c-0.22,0-0.45,0-0.67,0c-0.19,0-0.25,0.06-0.25,0.25c0,0.31,0,0.63,0,0.94
		c0,0.03,0,0.07,0,0.1c-0.11,0-0.21,0-0.31,0c0-0.67,0-1.33,0-2c0.35,0.11,0.67,0.07,0.97-0.14c0.41,0.27,0.81,0.27,1.22,0
		c0.37,0.22,0.49,0.24,0.97,0.14C-23.53,23.4-23.53,24.07-23.53,24.73z M-24.08,22.33c-0.17-0.06-0.21-0.11-0.21-0.29
		c0-0.26,0-0.52,0-0.79c0.25,0,0.49,0,0.72,0c0.03,0,0.07,0.03,0.08,0.06c0.05,0.16,0.09,0.33,0.14,0.49
		c0.01,0.02,0.01,0.05,0.01,0.08C-23.39,22.22-23.74,22.45-24.08,22.33z"/>
	<path class="st1" d="M-29.16,22.33c-0.13,0.01-0.27,0-0.4,0c-0.08,0-0.12-0.02-0.16-0.1c-0.18-0.41-0.38-0.81-0.56-1.21
		c-0.05-0.1-0.11-0.15-0.22-0.15c-0.14,0-0.28,0-0.44,0c0.02-0.15-0.08-0.15-0.18-0.15c-0.4,0-0.8,0-1.2,0
		c-0.11,0-0.19,0.01-0.2,0.15c-0.14,0-0.28,0-0.41,0c-0.11,0-0.18,0.04-0.22,0.15c-0.15,0.33-0.32,0.65-0.45,0.98
		c-0.1,0.25-0.23,0.39-0.51,0.33c-0.05-0.01-0.11,0-0.16,0c-0.13-0.01-0.22,0.04-0.28,0.15c0,0.03,0,0.07,0,0.1
		c0.01,0.03,0.03,0.06,0.04,0.09c0.29,0.72,0.58,1.43,0.86,2.15c0.05,0.14,0.14,0.2,0.28,0.19c0.4-0.01,0.81,0,1.21,0
		c0.7,0,1.4,0,2.1,0c0.18,0,0.21-0.03,0.28-0.19c0.03-0.08,0.07-0.16,0.1-0.25c0.27-0.67,0.54-1.33,0.81-2c0-0.03,0-0.07,0-0.1
		C-28.94,22.37-29.03,22.32-29.16,22.33z M-33.68,23.24c-0.08-0.02-0.18-0.02-0.21-0.07c-0.08-0.13-0.12-0.28-0.18-0.43
		c0.14,0,0.26,0,0.39,0C-33.68,22.9-33.68,23.06-33.68,23.24z M-33.34,22.21c0.11-0.24,0.22-0.47,0.32-0.71
		c0.13-0.29,0.13-0.29,0.45-0.28c0.01,0,0.02,0,0.04,0.01c0,0.12,0.07,0.15,0.18,0.15c0.4,0,0.81,0,1.21,0
		c0.11,0,0.2-0.01,0.18-0.16c0.1,0,0.18,0.01,0.27,0c0.09-0.01,0.13,0.03,0.17,0.11c0.1,0.23,0.21,0.46,0.31,0.69
		c0.05,0.1,0.09,0.2,0.14,0.32c-1.12,0-2.21,0-3.33,0C-33.37,22.28-33.36,22.25-33.34,22.21z M-31.85,22.75c0,0.16,0,0.31,0,0.46
		c-0.24,0-0.46,0-0.68,0c0-0.16,0-0.31,0-0.46C-32.3,22.75-32.07,22.75-31.85,22.75z M-32.77,24.63c-0.17,0-0.32,0-0.48,0
		c-0.03,0-0.07-0.01-0.07-0.03c-0.05-0.14-0.16-0.27-0.12-0.45c0.23,0,0.45,0,0.67,0C-32.77,24.3-32.77,24.46-32.77,24.63z
		 M-32.77,23.9c-0.23,0-0.45,0-0.67,0c0-0.16,0-0.3,0-0.44c0.23,0,0.45,0,0.67,0C-32.77,23.6-32.77,23.75-32.77,23.9z M-32.77,23.21
		c-0.23,0-0.45,0-0.67,0c0-0.17,0-0.32,0-0.47c0.23,0,0.45,0,0.67,0C-32.77,22.9-32.77,23.05-32.77,23.21z M-31.85,24.62
		c-0.21,0-0.41,0-0.62,0c-0.02,0-0.06-0.03-0.06-0.05c-0.01-0.14,0-0.28,0-0.43c0.23,0,0.45,0,0.69,0
		C-31.85,24.3-31.85,24.46-31.85,24.62z M-31.85,23.9c-0.24,0-0.46,0-0.68,0c0-0.16,0-0.3,0-0.44c0.23,0,0.45,0,0.68,0
		C-31.85,23.61-31.85,23.75-31.85,23.9z M-30.81,24.61c-0.27,0-0.53,0-0.8,0c0-0.16,0-0.31,0-0.47c0.28,0,0.54,0,0.8,0
		C-30.81,24.31-30.81,24.46-30.81,24.61z M-30.81,23.9c-0.27,0-0.53,0-0.79,0c0-0.15,0-0.3,0-0.45c0.27,0,0.53,0,0.79,0
		C-30.81,23.61-30.81,23.75-30.81,23.9z M-30.81,23.22c-0.27,0-0.53,0-0.79,0c0-0.17,0-0.32,0-0.47c0.27,0,0.53,0,0.79,0
		C-30.81,22.91-30.81,23.06-30.81,23.22z M-30.57,22.74c0.19,0,0.38,0,0.57,0c0,0.16,0,0.31,0,0.47c-0.19,0-0.38,0-0.57,0
		C-30.57,23.05-30.57,22.9-30.57,22.74z M-30.57,23.46c0.2,0,0.38,0,0.57,0c0,0.15,0,0.29,0,0.44c-0.2,0-0.39,0-0.57,0
		C-30.57,23.74-30.57,23.6-30.57,23.46z M-30.12,24.57c-0.01,0.02-0.05,0.05-0.07,0.05c-0.12,0.01-0.25,0-0.37,0
		c0-0.17,0-0.33,0-0.49c0.21,0,0.4,0,0.62,0C-30.01,24.29-30.06,24.43-30.12,24.57z M-29.51,23.08c-0.04,0.13-0.11,0.18-0.25,0.13
		c0-0.15,0-0.3,0-0.46c0.13,0,0.24,0,0.38,0C-29.43,22.86-29.48,22.97-29.51,23.08z"/>
</g>
<g class="st2">
	<path class="st3" d="M-8.55-5.33l-0.06-0.8c-0.18-1.65,0.37-3.46,1.9-5.3c1.38-1.63,2.14-2.82,2.14-4.2c0-1.56-0.98-2.61-2.91-2.64
		c-1.1,0-2.33,0.37-3.1,0.95l-0.74-1.93c1.01-0.74,2.76-1.23,4.38-1.23c3.53,0,5.12,2.18,5.12,4.51c0,2.09-1.17,3.59-2.64,5.34
		c-1.35,1.59-1.84,2.94-1.75,4.51l0.03,0.8H-8.55z M-9.23-1.04c0-1.14,0.77-1.93,1.84-1.93c1.07,0,1.81,0.8,1.81,1.93
		c0,1.07-0.7,1.9-1.84,1.9C-8.49,0.86-9.23,0.03-9.23-1.04z"/>
</g>
<g class="st2">
	<path class="st3" d="M10.08,21.12c0-1.17,0.81-2.02,1.92-2.02c1.17,0,1.92,0.84,1.92,2.02c0,1.14-0.75,2.02-1.92,2.02
		C10.86,23.14,10.08,22.26,10.08,21.12z M10.89,16.47L10.44,0.86h3.12l-0.46,15.61H10.89z"/>
</g>
</svg>
