<?xml version="1.0" encoding="utf-8"?>
<!-- Generator: Adobe Illustrator 23.0.1, SVG Export Plug-In . SVG Version: 6.00 Build 0)  -->
<svg version="1.1" id="Layer_1" xmlns="http://www.w3.org/2000/svg" xmlns:xlink="http://www.w3.org/1999/xlink" x="0px" y="0px"
	 viewBox="0 0 600 600" style="enable-background:new 0 0 600 600;" xml:space="preserve">
<style type="text/css">
	.st0{fill:#FFFFFF;}
</style>
<g>
	<g>
		<path class="st0" d="M279.14,198.8c1.64,1.81,3.64,3.26,6,4.34c2.36,1.08,5,1.62,7.94,1.62c2.94,0,5.59-0.54,7.94-1.62
			c2.36-1.08,4.35-2.52,6-4.34c1.64-1.81,2.9-3.93,3.76-6.34c0.86-2.42,1.3-4.96,1.3-7.64c0-2.68-0.43-5.22-1.3-7.64
			c-0.86-2.42-2.12-4.54-3.76-6.37c-1.64-1.83-3.64-3.29-6-4.37c-2.36-1.08-5-1.62-7.94-1.62c-2.94,0-5.59,0.54-7.94,1.62
			c-2.36,1.08-4.35,2.54-6,4.37c-1.64,1.83-2.9,3.96-3.76,6.37c-0.86,2.42-1.3,4.96-1.3,7.64c0,2.68,0.43,5.22,1.3,7.64
			C276.24,194.88,277.5,196.99,279.14,198.8z"/>
	</g>
	<g>
		<path class="st0" d="M17.5,10c-4.4,0-8,3.6-8,8v565c0,4.4,3.6,8,8,8h565c4.4,0,8-3.6,8-8V18c0-4.4-3.6-8-8-8H17.5z M370.04,175.13
			c1.21-2.94,2.89-5.48,5.02-7.62c2.14-2.14,4.67-3.81,7.59-5.02c2.92-1.21,6.08-1.82,9.5-1.82c3.41,0,6.58,0.61,9.5,1.82
			c2.92,1.21,5.45,2.89,7.59,5.02c2.14,2.14,3.81,4.68,5.02,7.62c1.21,2.94,1.82,6.16,1.82,9.66c0,3.5-0.61,6.72-1.82,9.66
			c-1.21,2.94-2.89,5.48-5.02,7.62c-2.14,2.14-4.67,3.82-7.59,5.02c-2.92,1.21-6.08,1.82-9.5,1.82c-3.41,0-6.58-0.61-9.5-1.82
			c-2.92-1.21-5.45-2.89-7.59-5.02c-2.14-2.14-3.82-4.68-5.02-7.62c-1.21-2.94-1.82-6.16-1.82-9.66
			C368.22,181.29,368.83,178.07,370.04,175.13z M351.33,192.02c-0.63-1.06-1.46-1.94-2.5-2.66c-1.04-0.71-2.23-1.31-3.57-1.78
			c-1.34-0.48-2.75-0.95-4.21-1.43c-1.51-0.47-3-1.01-4.47-1.62c-1.47-0.6-2.79-1.39-3.95-2.37c-1.17-0.97-2.11-2.17-2.82-3.6
			c-0.71-1.43-1.07-3.18-1.07-5.25c0-2.2,0.44-4.11,1.33-5.71c0.89-1.6,2.04-2.92,3.47-3.96c1.43-1.04,3-1.79,4.73-2.27
			c1.73-0.47,3.44-0.71,5.12-0.71c3.11,0,5.77,0.55,7.97,1.65c2.2,1.1,2.2,1.1,2.2,1.1c1.53,1.55,1.96,3.49,0.94,4.31
			s-2.87,0.37-4.12-1c0,0,0,0-1.56-0.84c-1.56-0.84-3.44-1.26-5.64-1.26c-1.12,0-2.27,0.17-3.44,0.52
			c-1.17,0.35-2.23,0.88-3.18,1.59c-0.95,0.71-1.72,1.61-2.3,2.69c-0.58,1.08-0.88,2.36-0.88,3.83c0,1.47,0.28,2.68,0.84,3.63
			c0.56,0.95,1.3,1.76,2.23,2.43c0.93,0.67,1.98,1.22,3.17,1.65c1.19,0.43,2.42,0.87,3.72,1.3c1.59,0.52,3.2,1.08,4.82,1.69
			c1.62,0.61,3.07,1.39,4.37,2.37c1.29,0.97,2.35,2.2,3.17,3.7c0.82,1.49,1.23,3.38,1.23,5.67c0,2.29-0.44,4.27-1.31,5.93
			c-0.87,1.66-2.01,3.04-3.4,4.12c-1.4,1.08-2.99,1.88-4.78,2.4c-1.79,0.52-3.6,0.78-5.41,0.78c-1.38,0-2.77-0.14-4.15-0.42
			c-1.38-0.28-2.7-0.7-3.95-1.26c-1.25-0.56-2.42-1.27-3.5-2.14c-1.08-0.86-1.08-0.86-1.08-0.86c-0.97-1.17-0.87-2.79,0.24-3.61
			s3.08-0.13,4.4,1.52c0,0,0,0,1.79,1.1c1.79,1.1,3.9,1.65,6.32,1.65c1.17,0,2.36-0.18,3.57-0.55c1.21-0.37,2.3-0.93,3.27-1.69
			c0.97-0.76,1.77-1.69,2.4-2.79c0.63-1.1,0.94-2.39,0.94-3.86C352.27,194.41,351.96,193.08,351.33,192.02z M270.97,175.13
			c1.21-2.94,2.89-5.48,5.02-7.62c2.14-2.14,4.67-3.81,7.59-5.02c2.92-1.21,6.08-1.82,9.5-1.82c3.41,0,6.58,0.61,9.5,1.82
			c2.92,1.21,5.45,2.89,7.59,5.02c2.14,2.14,3.81,4.68,5.02,7.62c1.21,2.94,1.82,6.16,1.82,9.66c0,3.5-0.61,6.72-1.82,9.66
			c-1.21,2.94-2.89,5.48-5.02,7.62c-2.14,2.14-4.67,3.82-7.59,5.02c-2.92,1.21-6.08,1.82-9.5,1.82c-3.41,0-6.58-0.61-9.5-1.82
			c-2.92-1.21-5.45-2.89-7.59-5.02c-2.14-2.14-3.82-4.68-5.02-7.62c-1.21-2.94-1.82-6.16-1.82-9.66
			C269.15,181.29,269.76,178.07,270.97,175.13z M227.27,161.84c1.6,0,4.82,3.06,7.14,6.8l5.37,8.65c2.32,3.74,6.13,3.75,8.47,0.02
			l5.44-8.68c2.34-3.73,5.47-6.78,6.97-6.78s0.75,3.01-1.67,6.68l-8.39,12.76c-2.42,3.68-4.4,10.28-4.4,14.68v3.78
			c0,4.4-1.05,8-2.33,8s-2.33-3.6-2.33-8v-3.78c0-4.4-1.98-11.01-4.4-14.68l-8.39-12.76C226.33,164.85,225.67,161.84,227.27,161.84z
			 M207.88,524.52c-24.72,0-44.73-20.23-44.73-44.95s20-44.95,44.73-44.95s44.95,20.23,44.95,44.95S232.6,524.52,207.88,524.52z
			 M432.64,524.52c-24.72,0-44.73-20.23-44.73-44.95s20-44.95,44.73-44.95s44.95,20.23,44.95,44.95S457.36,524.52,432.64,524.52z
			 M214.51,365.95c1.55,0.68,6.41,1.24,10.81,1.24h244.27c4.4,0,8,3.6,8,8v28.95c0,4.4-3.6,8-8,8H215.88
			c-4.4,0-11.28-1.48-15.3-3.28c0,0-37.66-16.95-37.66-41.67c0-7.87,2.59-14.17,2.59-14.17c1.67-4.07,4.77-10.56,6.89-14.41
			l22.62-41.05c2.12-3.85,2.32-10.26,0.43-14.23L121.4,127.18c-1.89-3.98-7.03-7.23-11.43-7.23H81.02c-4.4,0-8-3.6-8-8V83
			c0-4.4,3.6-8,8-8h57.5c4.4,0,9.53,3.26,11.4,7.24l14.32,30.47c1.87,3.98,4.95,10.49,6.84,14.47l14.49,30.5
			c1.89,3.97,4.97,10.48,6.86,14.46l43.5,91.85c1.88,3.98,4.08,8.6,4.88,10.26s5.06,3.03,9.46,3.03h141.78c4.4,0,9.74-3.15,11.87-7
			l54.3-98.37c2.13-3.85,5.6-10.16,7.72-14.01l17.01-30.93c2.12-3.86,3.91-7.01,3.97-7.01s3.26,1.74,7.12,3.86l25.1,13.85
			c3.85,2.13,5.27,7.02,3.15,10.87l-79.04,143.54c-2.12,3.85-6.37,9.59-9.43,12.75L407.73,320c-4.23,1.23-11.28,2.23-15.68,2.23
			H240.6c-4.4,0-9.74,3.15-11.87,7l-12.49,22.63c-2.13,3.85-4.02,7.61-4.2,8.35S212.96,365.27,214.51,365.95z"/>
	</g>
	<g>
		<path class="st0" d="M378.21,198.8c1.64,1.81,3.64,3.26,6,4.34c2.36,1.08,5,1.62,7.94,1.62c2.94,0,5.59-0.54,7.94-1.62
			c2.36-1.08,4.35-2.52,6-4.34c1.64-1.81,2.9-3.93,3.76-6.34c0.86-2.42,1.3-4.96,1.3-7.64c0-2.68-0.43-5.22-1.3-7.64
			c-0.86-2.42-2.12-4.54-3.76-6.37c-1.64-1.83-3.64-3.29-6-4.37c-2.36-1.08-5-1.62-7.94-1.62c-2.94,0-5.59,0.54-7.94,1.62
			c-2.36,1.08-4.35,2.54-6,4.37c-1.64,1.83-2.9,3.96-3.76,6.37c-0.86,2.42-1.3,4.96-1.3,7.64c0,2.68,0.43,5.22,1.3,7.64
			C375.31,194.88,376.56,196.99,378.21,198.8z"/>
	</g>
</g>
<g>
	<path d="M221.32-183h-8.74v-37.04l-32.18-48.94h10.93l25.87,41.65l26.11-41.65h10.2l-32.18,48.94V-183z"/>
	<path d="M353.94-225.99c0,6.56-1.14,12.59-3.4,18.09c-2.27,5.51-5.4,10.26-9.41,14.27c-4.01,4.01-8.74,7.15-14.21,9.41
		c-5.46,2.27-11.4,3.4-17.79,3.4c-6.4,0-12.33-1.13-17.79-3.4c-5.46-2.27-10.2-5.4-14.21-9.41c-4.01-4.01-7.15-8.76-9.41-14.27
		c-2.27-5.51-3.4-11.54-3.4-18.09c0-6.56,1.13-12.59,3.4-18.1c2.27-5.5,5.4-10.26,9.41-14.27c4.01-4.01,8.74-7.14,14.21-9.41
		c5.46-2.27,11.39-3.4,17.79-3.4c6.39,0,12.33,1.14,17.79,3.4c5.46,2.27,10.2,5.4,14.21,9.41c4.01,4.01,7.14,8.76,9.41,14.27
		C352.8-238.58,353.94-232.55,353.94-225.99z M344.71-225.93c0-5.01-0.81-9.78-2.43-14.31c-1.62-4.53-3.97-8.51-7.04-11.94
		c-3.08-3.43-6.82-6.16-11.23-8.18c-4.41-2.02-9.37-3.03-14.88-3.03c-5.51,0-10.46,1.01-14.88,3.03c-4.41,2.02-8.16,4.75-11.23,8.18
		c-3.08,3.43-5.42,7.41-7.04,11.94c-1.62,4.53-2.43,9.3-2.43,14.31c0,5.01,0.81,9.78,2.43,14.31c1.62,4.53,3.97,8.49,7.04,11.88
		c3.08,3.39,6.82,6.1,11.23,8.12c4.41,2.02,9.37,3.03,14.88,3.03c5.51,0,10.46-1.01,14.88-3.03c4.41-2.02,8.16-4.73,11.23-8.12
		c3.08-3.39,5.42-7.35,7.04-11.88C343.9-216.15,344.71-220.92,344.71-225.93z"/>
	<path d="M420.73-255.14c-1.86-2.59-4.25-4.67-7.16-6.25c-2.92-1.58-6.44-2.37-10.57-2.37c-2.11,0-4.25,0.33-6.44,0.97
		c-2.19,0.65-4.17,1.64-5.95,2.98c-1.78,1.34-3.22,3.02-4.31,5.04c-1.09,2.02-1.64,4.41-1.64,7.17c0,2.75,0.52,5.02,1.57,6.8
		c1.05,1.78,2.44,3.3,4.18,4.55c1.74,1.26,3.72,2.29,5.94,3.1c2.22,0.81,4.54,1.62,6.96,2.43c2.99,0.97,5.99,2.02,9.02,3.16
		c3.03,1.13,5.75,2.61,8.18,4.43c2.42,1.82,4.4,4.13,5.93,6.92c1.53,2.79,2.3,6.34,2.3,10.63c0,4.29-0.82,8-2.46,11.11
		c-1.64,3.12-3.76,5.69-6.38,7.71c-2.62,2.02-5.6,3.52-8.96,4.49c-3.36,0.97-6.74,1.46-10.14,1.46c-2.59,0-5.18-0.26-7.77-0.79
		c-2.59-0.53-5.06-1.32-7.41-2.37c-2.35-1.05-4.54-2.39-6.56-4.01c-2.02-1.62-3.81-3.48-5.34-5.59l7.53-5.59
		c1.86,3.08,4.47,5.65,7.83,7.71c3.36,2.06,7.31,3.1,11.84,3.1c2.19,0,4.41-0.34,6.68-1.03c2.27-0.69,4.31-1.74,6.13-3.16
		c1.82-1.42,3.32-3.16,4.49-5.22c1.17-2.06,1.76-4.47,1.76-7.23c0-2.99-0.59-5.48-1.76-7.47c-1.17-1.98-2.73-3.64-4.67-4.98
		s-4.17-2.45-6.68-3.34c-2.51-0.89-5.14-1.78-7.89-2.67c-2.83-0.89-5.63-1.9-8.38-3.04c-2.75-1.13-5.22-2.61-7.41-4.43
		s-3.95-4.07-5.28-6.74s-2-5.95-2-9.84c0-4.13,0.83-7.69,2.49-10.69c1.66-2.99,3.83-5.46,6.5-7.41c2.67-1.94,5.63-3.36,8.87-4.25
		c3.24-0.89,6.44-1.34,9.59-1.34c5.83,0,10.81,1.03,14.94,3.1c4.13,2.06,7.24,4.51,9.35,7.35L420.73-255.14z"/>
	<path d="M539.5-225.99c0,6.56-1.14,12.59-3.4,18.09c-2.27,5.51-5.4,10.26-9.41,14.27c-4.01,4.01-8.74,7.15-14.21,9.41
		c-5.46,2.27-11.4,3.4-17.79,3.4c-6.4,0-12.33-1.13-17.79-3.4c-5.46-2.27-10.2-5.4-14.21-9.41c-4.01-4.01-7.15-8.76-9.41-14.27
		c-2.27-5.51-3.4-11.54-3.4-18.09c0-6.56,1.13-12.59,3.4-18.1c2.27-5.5,5.4-10.26,9.41-14.27c4.01-4.01,8.74-7.14,14.21-9.41
		c5.46-2.27,11.39-3.4,17.79-3.4c6.39,0,12.33,1.14,17.79,3.4c5.46,2.27,10.2,5.4,14.21,9.41c4.01,4.01,7.14,8.76,9.41,14.27
		C538.36-238.58,539.5-232.55,539.5-225.99z M530.27-225.93c0-5.01-0.81-9.78-2.43-14.31c-1.62-4.53-3.97-8.51-7.04-11.94
		c-3.08-3.43-6.82-6.16-11.23-8.18c-4.41-2.02-9.37-3.03-14.88-3.03c-5.51,0-10.46,1.01-14.88,3.03c-4.41,2.02-8.16,4.75-11.23,8.18
		c-3.08,3.43-5.42,7.41-7.04,11.94c-1.62,4.53-2.43,9.3-2.43,14.31c0,5.01,0.81,9.78,2.43,14.31c1.62,4.53,3.97,8.49,7.04,11.88
		c3.08,3.39,6.82,6.1,11.23,8.12c4.41,2.02,9.37,3.03,14.88,3.03c5.51,0,10.46-1.01,14.88-3.03c4.41-2.02,8.16-4.73,11.23-8.12
		c3.08-3.39,5.42-7.35,7.04-11.88C529.46-216.15,530.27-220.92,530.27-225.93z"/>
</g>
<path d="M55.5-205.8c-3.84,0-6.95,3.14-6.95,6.98s3.11,6.98,6.95,6.98c3.84,0,6.98-3.14,6.98-6.98S59.34-205.8,55.5-205.8z
	 M90.42-205.8c-3.84,0-6.95,3.14-6.95,6.98s3.11,6.98,6.95,6.98c3.84,0,6.98-3.14,6.98-6.98S94.26-205.8,90.42-205.8z M56.1-217.15
	l0.1-0.42l3.14-5.69h26.01c2.62,0,4.92-1.43,6.11-3.6l13.48-24.48l-6.08-3.35h-0.03L95-247.7l-9.64,17.46H60.85l-0.45-0.94
	l-7.82-16.52l-3.32-6.98l-3.28-6.98H34.55v6.98h6.98l12.57,26.5l-4.71,8.56c-0.56,0.98-0.87,2.13-0.87,3.35
	c0,3.84,3.14,6.98,6.98,6.98h41.9v-6.98H56.97C56.52-216.28,56.1-216.66,56.1-217.15z"/>
<rect x="136.97" y="-297.36" width="6.4" height="142.72"/>
</svg>
