<?xml version="1.0" standalone="no"?>
<!DOCTYPE svg PUBLIC "-//W3C//DTD SVG 20010904//EN"
 "http://www.w3.org/TR/2001/REC-SVG-20010904/DTD/svg10.dtd">
<svg version="1.0" xmlns="http://www.w3.org/2000/svg"
 width="260.000000pt" height="260.000000pt" viewBox="0 0 260.000000 260.000000"
 preserveAspectRatio="xMidYMid meet">
<metadata>
Created by potrace 1.11, written by Peter Selinger 2001-2013
</metadata>
<g transform="translate(0.000000,260.000000) scale(0.100000,-0.100000)"
fill="#000000" stroke="none">
<path d="M0 1300 l0 -1300 1300 0 1300 0 0 1300 0 1300 -1300 0 -1300 0 0
-1300z m579 1033 c11 -10 116 -218 231 -463 116 -245 218 -451 227 -457 13
-10 102 -13 364 -13 316 0 349 2 367 18 11 9 104 170 207 357 103 187 191 344
195 348 15 16 170 -73 170 -97 0 -13 -342 -641 -386 -708 -16 -25 -48 -51 -96
-77 l-73 -41 -386 0 c-448 0 -409 9 -474 -114 -33 -61 -38 -77 -27 -88 10 -10
137 -14 615 -16 461 -2 603 -5 609 -15 13 -20 9 -162 -4 -175 -9 -9 -163 -12
-630 -12 -612 0 -619 0 -661 21 -106 54 -157 117 -157 195 0 42 11 69 75 187
41 75 75 149 75 163 0 23 -340 757 -361 779 -6 6 -54 12 -107 15 l-97 5 -3 94
c-2 69 1 97 10 103 7 4 77 8 154 8 121 0 145 -3 163 -17z m736 -397 c78 -33
87 -154 14 -192 -57 -29 -130 -11 -155 37 -29 58 -6 130 49 154 41 18 50 18
92 1z m240 -8 c7 -7 0 -8 -22 -3 -50 10 -75 -2 -71 -33 2 -21 13 -32 47 -48
50 -23 65 -50 47 -85 -9 -18 -21 -25 -51 -27 -22 -1 -47 2 -55 7 -24 16 -6 22
28 9 28 -11 34 -10 53 9 29 29 20 48 -38 75 -44 21 -48 26 -48 58 0 27 6 37
25 47 26 14 68 9 85 -9z m219 8 c79 -33 90 -133 22 -188 -33 -27 -98 -23 -135
8 -58 49 -46 150 21 179 42 18 51 18 92 1z m-774 -36 c29 -47 54 -51 74 -12
15 28 46 61 46 48 0 -4 -14 -28 -32 -53 -21 -31 -33 -62 -36 -95 -5 -57 -22
-65 -22 -10 0 37 -6 53 -49 125 -13 20 -19 37 -14 37 4 0 19 -18 33 -40z m-45
-1249 c154 -70 166 -281 20 -367 -40 -23 -54 -26 -115 -22 -59 3 -74 8 -107
34 -63 51 -84 98 -81 175 5 88 38 141 111 175 62 28 117 30 172 5z m1051 0
c80 -36 133 -132 119 -216 -16 -103 -97 -175 -198 -175 -69 0 -103 12 -145 53
-48 46 -65 84 -65 147 0 89 52 166 133 199 40 16 112 12 156 -8z"/>
<path d="M1209 1901 c-21 -22 -29 -39 -29 -66 0 -48 44 -95 90 -95 46 0 90 47
90 95 0 48 -44 95 -90 95 -22 0 -41 -9 -61 -29z"/>
<path d="M1673 1906 c-23 -20 -28 -32 -28 -70 0 -55 24 -84 78 -93 31 -5 40
-1 67 25 86 86 -25 217 -117 138z"/>
</g>
</svg>
